<svg id="그룹_118" data-name="그룹 118" xmlns="http://www.w3.org/2000/svg" xmlns:xlink="http://www.w3.org/1999/xlink" width="80" height="107.532" viewBox="0 0 80 107.532">
  <defs>
    <clipPath id="clip-path">
      <rect id="사각형_165" data-name="사각형 165" width="80" height="107.532" fill="none"/>
    </clipPath>
  </defs>
  <g id="그룹_117" data-name="그룹 117" clip-path="url(#clip-path)">
    <path id="패스_288" data-name="패스 288" d="M79.328,31.287C76.48,28.5,72.8,25.125,68.446,26.328c-4.1,1.132-5.665,5.6-6.4,9.329-.946,4.8-1.681,9.65-2.444,14.483-.77,4.882-1.492,9.77-2.2,14.662q-.595,4.14-1.175,8.282-.289,2.072-.576,4.143c-.187,1.354-.414,2.707-.488,4.074-.024.435.659.5.754.083.528-2.3.746-4.7,1.084-7.036s.68-4.7,1.024-7.053q1.025-7,2.093-14t2.177-14c.631-3.954.93-8.866,4.435-11.474a6.775,6.775,0,0,1,6.555-.615,19.607,19.607,0,0,1,5.953,4.166.06.06,0,0,0,.082-.087" transform="translate(-13.804 -6.525)" fill="#263238"/>
    <path id="패스_289" data-name="패스 289" d="M79.01,26.475s-5.822-2.095-8.694,2.153.561,15.055,27.067,21.151a74.853,74.853,0,0,0-6.378-23.961c-5.682-12.392-15.807-7.7-12,.656" transform="translate(-17.384 -4.564)" fill="#ffc727"/>
    <path id="패스_290" data-name="패스 290" d="M98.035,50.616a20.789,20.789,0,0,0-1.333-2.15q-.665-1.025-1.344-2.039c-.34-.509-.688-1.014-1.037-1.518.025-.122.032-.25.049-.379.03-.229.061-.459.09-.688.065-.5.138-.993.211-1.488s.155-.987.25-1.479a7.792,7.792,0,0,1,.347-1.562c.033-.077-.106-.115-.116-.025a5.838,5.838,0,0,1-.237.878c-.062.223-.12.446-.178.67-.128.5-.251,1.007-.364,1.514-.1.466-.193.936-.273,1.407-.038.226-.072.453-.1.68-.472-.674-.954-1.341-1.451-2-1.407-1.854-2.9-3.638-4.436-5.379.006-.017.022-.028.023-.048a47.866,47.866,0,0,1,.689-8.282c.017-.074-.1-.115-.113-.04a28.449,28.449,0,0,0-.99,7.924q-.829-.927-1.677-1.838-1.937-2.082-3.949-4.092a.06.06,0,0,0-.088.082c2.234,2.4,4.355,4.908,6.421,7.458a45.607,45.607,0,0,0-4.845.179c-1.8.133-3.583.363-5.368.61-.076.01-.053.129.023.117a50.481,50.481,0,0,1,5.359-.48c1.73-.072,3.45.006,5.177,0q1.673,2.077,3.309,4.185l-.246,0c-.406-.007-.813-.014-1.219-.007-.805.014-1.612.07-2.414.139a36.655,36.655,0,0,0-4.895.732.06.06,0,0,0,.023.118c1.628-.184,3.26-.337,4.9-.394.782-.027,1.563-.027,2.345-.028.406,0,.813,0,1.218,0a1.535,1.535,0,0,0,.67-.061c.713.925,1.427,1.85,2.132,2.781q.843,1.111,1.663,2.24c.556.77,1.06,1.611,1.68,2.331.046.053.126-.01.1-.069" transform="translate(-19.558 -7.169)" fill="#263238"/>
    <path id="패스_291" data-name="패스 291" d="M83.66,37.207a17.808,17.808,0,0,0-2.835-.138c-.946,0-1.893.028-2.837.061a.06.06,0,1,0,.007.118c.959-.069,1.917-.085,2.878-.071.927.014,1.857.1,2.783.078a.024.024,0,0,0,0-.048" transform="translate(-19.498 -9.275)" fill="#263238"/>
    <path id="패스_292" data-name="패스 292" d="M96.522,39.173c.109-.9.222-1.814.415-2.706a.06.06,0,1,0-.116-.025c-.136.891-.31,1.776-.441,2.668q-.1.669-.181,1.341a6.191,6.191,0,0,0-.109,1.264.081.081,0,0,0,.155.012,7.79,7.79,0,0,0,.137-1.263q.062-.646.139-1.291" transform="translate(-24.041 -9.105)" fill="#263238"/>
    <path id="패스_293" data-name="패스 293" d="M94.028,26.712c-.232.881-.462,1.773-.625,2.669-.082.455-.152.912-.214,1.371a5.5,5.5,0,0,0-.089,1.339.036.036,0,0,0,.069.005,7.622,7.622,0,0,0,.209-1.277q.089-.661.2-1.318c.161-.925.325-1.839.559-2.749.019-.074-.093-.115-.112-.041" transform="translate(-23.291 -6.674)" fill="#263238"/>
    <path id="패스_294" data-name="패스 294" d="M43.956,87.68q-.219-2.5-.484-5-.522-4.953-1.194-9.887c-.442-3.281-.863-6.569-1.391-9.837a24.5,24.5,0,0,0-1.011-4.466A4.24,4.24,0,0,0,37.4,55.695c-3.119-1.077-5.223,2.157-6.482,4.445-.038.069.061.12.1.058.754-1.083,2.838-4.126,5.2-3.984,1.593.1,2.866,1.222,3.63,5.192,1.9,9.89,3.62,29.961,3.821,31.274.106.7.6.666.6-.08.009-1.641-.181-3.284-.325-4.919" transform="translate(-7.734 -13.882)" fill="#263238"/>
    <path id="패스_295" data-name="패스 295" d="M27.477,58s2.725-9.625-3.3-4.812C14.147,61.2,13.79,78.623,13.79,78.623S31.621,68.266,33.839,61.435C37.141,51.26,27.477,58,27.477,58" transform="translate(-3.45 -12.97)" fill="#ffc727"/>
    <path id="패스_296" data-name="패스 296" d="M31.23,64.374c-1.4.283-2.818.469-4.231.673q-1,.144-2.007.282c-.451.062-.909.106-1.364.161,1.329-1.829,2.668-3.652,3.941-5.519.049-.071-.061-.146-.119-.088a41.347,41.347,0,0,0-2.98,3.439c-.261-.745-.528-1.489-.79-2.234-.3-.862-.629-1.719-.848-2.608-.019-.074-.136-.04-.115.034.243.882.416,1.783.652,2.667.228.855.487,1.7.79,2.529-.654.848-1.28,1.717-1.889,2.594-.307-.87-.688-1.712-.957-2.594a.06.06,0,0,0-.114.035c.319.977.491,1.993.792,2.975-.409.6-.819,1.2-1.209,1.8-.72,1.113-1.4,2.246-2.063,3.387a.263.263,0,0,0-.156.269c-1.127,1.948-2.2,3.926-3.256,5.921a.06.06,0,0,0,.1.058c1.059-1.971,2.236-3.889,3.461-5.773,0,0,.009,0,.013,0a2.718,2.718,0,0,1,.583-.112c.205-.042.41-.089.616-.133.461-.1.918-.22,1.376-.334.9-.224,1.8-.437,2.717-.6.076-.013.041-.129-.034-.115-1.079.205-2.162.328-3.253.454-.514.06-1.028.126-1.54.208l-.074.01q.963-1.461,1.949-2.9c.649-.94,1.314-1.868,1.982-2.794.619-.087,1.232-.249,1.844-.367q1.036-.2,2.07-.4c1.38-.273,2.755-.583,4.143-.812.075-.013.042-.13-.035-.115" transform="translate(-3.828 -14.622)" fill="#263238"/>
    <path id="패스_297" data-name="패스 297" d="M22,66.813c-.083-.254-.16-.511-.241-.766a15.462,15.462,0,0,1-.409-1.614c-.015-.075-.13-.041-.114.035.116.544.243,1.085.368,1.627a10.451,10.451,0,0,0,.464,1.6.108.108,0,0,0,.206-.062c-.076-.277-.185-.547-.274-.82" transform="translate(-5.313 -16.111)" fill="#263238"/>
    <path id="패스_298" data-name="패스 298" d="M37.332,63.383c-.813.122-1.634.179-2.452.25s-1.634.186-2.451.309c-.044.007-.046.075,0,.072.821-.056,1.635-.12,2.453-.227s1.63-.228,2.451-.284c.078-.006.071-.131,0-.12" transform="translate(-8.106 -15.859)" fill="#263238"/>
    <path id="패스_299" data-name="패스 299" d="M55.348,64.766c-.316-7.087-.766-14.161-1.479-21.22-.355-3.515-.752-7.028-1.246-10.526a75.318,75.318,0,0,0-2.03-10.188A19.572,19.572,0,0,0,47.2,15.649a7.7,7.7,0,0,0-6.852-2.991c-3.1.383-5.6,2.337-7.759,4.46C30.167,19.5,27.948,22.1,25.7,24.648q-.851.967-1.689,1.946c-.05.058.035.141.086.082,2.195-2.522,4.475-4.971,6.861-7.313,2.2-2.165,4.475-4.53,7.529-5.424a7.759,7.759,0,0,1,4.375-.1,6.945,6.945,0,0,1,2.989,1.893,15.647,15.647,0,0,1,3.37,6.554c1.907,6.513,2.589,13.344,3.3,20.071.719,6.834,1.2,13.687,1.548,20.55.346,6.9.615,13.807,1.279,20.686.082.849.193,1.7.3,2.541.072.569.956.57.909-.022-.562-7.108-.891-14.22-1.209-21.343" transform="translate(-6.005 -3.154)" fill="#263238"/>
    <path id="패스_300" data-name="패스 300" d="M26.2,16.275s4.047-7.49-.736-9.891S4.675,21.845,0,47.967c0,0,25.847-11.436,34.625-22.832s-1.173-13.9-8.429-8.86" transform="translate(0 -1.543)" fill="#ffc727"/>
    <path id="패스_301" data-name="패스 301" d="M31.345,25.264c-2.9.007-5.8-.22-8.708-.2.544-.625,1.087-1.25,1.637-1.87a27.177,27.177,0,0,0,2.271-2.639c.04-.06-.046-.145-.1-.1a21.049,21.049,0,0,0-2.2,2.205q-1.092,1.158-2.172,2.328c-1.11,1.2-2.2,2.423-3.284,3.646,0-.119,0-.237,0-.352,0-.508,0-1.017,0-1.526.007-.985.021-1.97.031-2.956.019-2,.014-4.005.153-6,.005-.076-.115-.073-.12,0-.139,2-.346,4-.445,6.005-.049.986-.072,1.97-.084,2.957-.006.509-.014,1.017-.01,1.527,0,.277-.008.57.013.856-.169.192-.345.378-.513.57-2.318,2.65-4.523,5.389-6.669,8.178,0-.154-.023-.312-.038-.463-.029-.307-.066-.615-.1-.921-.076-.667-.167-1.331-.267-1.994q-.141-.935-.3-1.866c-.117-.7-.288-1.406-.341-2.112a.059.059,0,1,0-.117.019,18.555,18.555,0,0,1,.243,2.128q.09.958.177,1.917c.057.64.115,1.28.181,1.919.031.307.059.615.092.922q.025.231.056.461a.87.87,0,0,0,.124.365c-.369.481-.739.96-1.105,1.443-1.466,1.94-2.9,3.9-4.344,5.86-.045.061.039.145.086.082,1.363-1.777,2.765-3.522,4.187-5.251,1.063.046,2.148-.033,3.211-.05,1.121-.02,2.242-.025,3.364-.028a.06.06,0,0,0,0-.12c-1.122.02-2.242.037-3.363.041-1.022,0-2.064-.046-3.087.009q1.875-2.279,3.779-4.534.693-.824,1.389-1.646a6.361,6.361,0,0,0,1.3.043l1.528,0c.954,0,1.91-.026,2.864-.04,1.973-.031,3.947-.1,5.92-.1a.06.06,0,0,0,0-.12c-1.976-.024-3.951-.109-5.926-.16-.955-.024-1.911-.055-2.867-.068-.51-.007-1.019-.011-1.529-.017-.289,0-.589-.024-.883-.013Q17,31.672,18.625,29.744a.153.153,0,0,0,.061-.07c1.059-1.249,2.118-2.5,3.19-3.738.146-.169.3-.337.443-.506,3.012.094,6.019-.1,9.03-.046.076,0,.074-.119,0-.119" transform="translate(-1.349 -4.441)" fill="#263238"/>
    <path id="패스_302" data-name="패스 302" d="M37.772,34.622l-.7.006a.054.054,0,0,0,0,.107l.7.006a.06.06,0,0,0,0-.119" transform="translate(-9.262 -8.663)" fill="#263238"/>
    <path id="패스_303" data-name="패스 303" d="M34.1,34.587q-1.4-.019-2.792-.058-.7-.02-1.4-.045a5.187,5.187,0,0,0-1.3.016c-.046.01-.038.074,0,.086a4.964,4.964,0,0,0,1.3.092q.7.013,1.4.019,1.4.015,2.791.01a.06.06,0,0,0,0-.12" transform="translate(-7.151 -8.62)" fill="#263238"/>
    <path id="패스_304" data-name="패스 304" d="M23.186,46.1a38.769,38.769,0,0,0-5.716-.516c-.027,0-.025.04,0,.042,1.9.181,3.8.283,5.686.59.076.012.1-.106.028-.116" transform="translate(-4.366 -11.404)" fill="#263238"/>
    <path id="패스_305" data-name="패스 305" d="M14.5,33.914c-.019-.166-.037-.332-.059-.5-.049-.373-.108-.747-.166-1.119q-.168-1.064-.37-2.123c-.013-.066-.126-.048-.117.019q.134,1.1.235,2.195c.034.359.06.72.093,1.08a3.039,3.039,0,0,0,.145,1.024c.055.112.222.066.251-.04a1.389,1.389,0,0,0-.011-.536" transform="translate(-3.449 -7.539)" fill="#263238"/>
    <path id="패스_306" data-name="패스 306" d="M62.053,5.532c-.925-1.722-2.1-4-4.412-3.853-1.907.119-2.766,2.065-3.173,3.673-1.26,4.975-1.348,10.222-1.593,15.319-.519,10.774-.985,21.559-1.053,32.347q-.028,4.485.019,8.97c.028,3.049.02,6.117.214,9.161a.224.224,0,0,0,.448-.011c.017-2.609-.075-5.219-.085-7.827q-.016-3.819.05-7.637.125-7.733.412-15.464c.19-5.122.415-10.241.632-15.362q.163-3.839.332-7.677c.112-2.479.219-4.96.5-7.427.158-1.38.363-2.763.651-4.123a5.744,5.744,0,0,1,1.192-2.763,2.6,2.6,0,0,1,3.37-.244,7.151,7.151,0,0,1,2.39,2.981c.035.068.139.005.1-.063" transform="translate(-12.964 -0.418)" fill="#263238"/>
    <path id="패스_307" data-name="패스 307" d="M63,4.291s-1.9-6.7,2.3-3.352c6.987,5.581,7.235,17.72,7.235,17.72S60.111,11.444,58.566,6.686C56.266-.4,63,4.291,63,4.291" transform="translate(-14.534 0)" fill="#ffc727"/>
    <path id="패스_308" data-name="패스 308" d="M70.929,15.3c-.114-.185-.236-.366-.352-.55a3.465,3.465,0,0,0,0-.572c0-.288,0-.577,0-.865q.02-.85.062-1.7c0-.077-.115-.073-.12,0-.029.555-.052,1.11-.067,1.666-.008.278-.021.556-.029.835,0,.108-.018.233-.024.358q-.731-1.136-1.506-2.243c-.15-.214-.307-.422-.46-.634A13.093,13.093,0,0,1,68.4,9.407c.01-.78.02-1.558.048-2.337,0-.077-.118-.074-.12,0-.023.811-.063,1.62-.1,2.43a15.564,15.564,0,0,0-.047,1.734c-1.2-1.632-2.472-3.2-3.761-4.768-.043-.052-.134.022-.092.075.8,1.009,1.563,2.045,2.312,3.093C65.17,9.3,63.684,9.1,62.2,8.885c-.075-.01-.1.1-.028.116,1.572.238,3.115.632,4.667.975.012,0,.019-.006.03-.006q.893,1.257,1.768,2.525c.238.343.469.692.7,1.038l-.067-.008c-.161-.023-.322-.047-.484-.067-.343-.041-.688-.068-1.032-.1-.716-.056-1.434-.094-2.151-.133-.076,0-.074.118,0,.12.706.016,1.408.069,2.111.145.371.04.74.091,1.111.134l.485.058.143.02c.4.586.8,1.173,1.194,1.76.7,1.037,1.328,2.148,2.076,3.15a.057.057,0,0,0,.1-.06,32.312,32.312,0,0,0-1.9-3.261" transform="translate(-15.545 -1.614)" fill="#263238"/>
    <path id="패스_309" data-name="패스 309" d="M69.693,7.314c0-.261.005-.522.005-.783a11.909,11.909,0,0,1,.066-1.643.06.06,0,1,0-.118-.013c0,.542-.059,1.086-.085,1.627-.013.271-.014.544-.015.815,0,.125,0,.25,0,.376a1.149,1.149,0,0,0,.028.39.055.055,0,0,0,.1,0,1.128,1.128,0,0,0,.016-.359c0-.136,0-.271,0-.407" transform="translate(-17.401 -1.205)" fill="#263238"/>
    <path id="패스_310" data-name="패스 310" d="M66.69,11.752c-.462-.079-.935-.1-1.4-.142-.513-.043-1.023-.088-1.534-.154a.06.06,0,1,0-.013.118c.981.063,1.957.238,2.938.273a.048.048,0,0,0,.011-.094" transform="translate(-15.934 -2.866)" fill="#263238"/>
    <path id="패스_311" data-name="패스 311" d="M72.893,11.878c.036.051.012.2.012.258v.217c0,.156,0,.313,0,.469s0,.313,0,.469a.985.985,0,0,0,.022.409.028.028,0,0,0,.047,0,.418.418,0,0,0,.023-.195c0-.072,0-.144,0-.216,0-.157,0-.313,0-.469s0-.312,0-.469v-.216c0-.067-.025-.2.014-.259.076-.108-.184-.11-.1,0" transform="translate(-18.235 -2.951)" fill="#263238"/>
    <path id="패스_312" data-name="패스 312" d="M58.732,52.892c-2.612-1.961-4.959-4.779-8.473-4.917-2.9-.114-4.932,2.069-6.094,4.5a25.357,25.357,0,0,0-1.422,4.005q-.786,2.752-1.48,5.53c-.91,3.642-1.692,7.319-2.326,11.02-.353,2.063-.682,4.133-.943,6.21a52.35,52.35,0,0,0-.61,6.358.331.331,0,0,0,.649.072c.354-1.737.5-3.531.758-5.285s.524-3.529.823-5.288q.9-5.278,2.08-10.5c.75-3.286,1.486-6.623,2.546-9.824.76-2.294,1.979-4.972,4.457-5.8,3.77-1.254,7.193,1.937,9.952,4.008.061.046.144-.04.082-.087" transform="translate(-9.354 -12.003)" fill="#263238"/>
    <path id="패스_313" data-name="패스 313" d="M59.233,49.228S56.825,42.353,60.307,41c5.22-2.021,18.881,13.366,16.207,36.94a134.322,134.322,0,0,1-18.35-12.356C50.371,59.048,48.377,50.5,51.809,48.3s7.424.932,7.424.932" transform="translate(-12.559 -10.215)" fill="#ffc727"/>
    <path id="패스_314" data-name="패스 314" d="M77.259,75.282A18.232,18.232,0,0,0,75.989,72.9c-.446-.807-.9-1.611-1.363-2.407-.907-1.551-1.809-3.107-2.737-4.645-.151-.249-.307-.5-.457-.745.02-.091.036-.185.056-.277l.155-.682c.116-.511.205-1.029.3-1.544.189-1.008.364-2.031.637-3.021.02-.074-.1-.1-.118-.021-.216,1.008-.532,2-.832,2.987-.147.486-.3.969-.43,1.461-.044.168-.089.337-.133.5-1.122-1.839-2.263-3.67-3.494-5.439a2.457,2.457,0,0,0,.121-.757c.038-.345.079-.689.12-1.033.092-.776.181-1.551.295-2.324a44.818,44.818,0,0,1,.828-4.517c.018-.074-.1-.1-.119-.021-.375,1.485-.784,2.969-1.065,4.475-.139.738-.269,1.479-.369,2.223-.049.373-.088.747-.127,1.12-.011.11-.029.224-.042.338-.379-.535-.758-1.069-1.155-1.59-1.2-1.586-2.453-3.135-3.714-4.677-.049-.059-.147.009-.1.069a83.038,83.038,0,0,1,5.935,8.669c.346.553.684,1.111,1.026,1.666l-.339-.043c-.441-.055-.888-.084-1.332-.124q-1.332-.124-2.665-.232c-1.778-.141-3.56-.25-5.334-.44-.076-.008-.1.109-.021.118,1.8.205,3.586.494,5.377.749q1.322.188,2.643.355a10.538,10.538,0,0,0,2.036.209q1.048,1.7,2.1,3.4A4.156,4.156,0,0,0,71.2,66.7c-.3-.005-.593,0-.89,0q-.827,0-1.652,0c-1.145,0-2.29.024-3.435.023-.078,0-.065.118.011.119,1.16.014,2.317.073,3.477.133q.823.043,1.648.1c.274.019.549.042.823.058a1.686,1.686,0,0,0,.725-.028c.592.966,1.191,1.928,1.783,2.9q.819,1.337,1.662,2.661a21.439,21.439,0,0,0,1.79,2.687c.047.052.143.014.116-.061" transform="translate(-14.88 -12.606)" fill="#263238"/>
    <path id="패스_315" data-name="패스 315" d="M76.106,58.163a16.738,16.738,0,0,1-.472,2.241q-.291,1.146-.664,2.269a.074.074,0,1,0,.141.045q.352-1.113.628-2.249c.183-.757.3-1.53.485-2.285.019-.075-.109-.1-.118-.021" transform="translate(-18.757 -14.541)" fill="#263238"/>
    <path id="패스_316" data-name="패스 316" d="M63.69,63.983a.886.886,0,0,0-.577-.214c-.331-.046-.664-.091-1-.136-.618-.084-1.237-.152-1.856-.225-1.286-.151-2.574-.275-3.859-.438-.076-.009-.1.109-.021.118,1.213.148,2.42.332,3.633.491.592.077,1.186.161,1.781.231.286.034.571.064.857.1a3.024,3.024,0,0,1,.979.168c.058.028.1-.048.058-.09" transform="translate(-14.095 -15.756)" fill="#263238"/>
    <path id="패스_317" data-name="패스 317" d="M75.182,78.092c-.607-.052-1.219-.071-1.827-.09l-.921-.028-.443-.013a2.776,2.776,0,0,1-.575-.034c-.085-.021-.093.133,0,.118a2.6,2.6,0,0,1,.539.017l.478.029.921.056c.607.037,1.219.073,1.828.076.073,0,.079-.124.005-.13" transform="translate(-17.852 -19.498)" fill="#263238"/>
    <path id="패스_318" data-name="패스 318" d="M81.3,73.582c.07-.345.135-.69.2-1.037q.187-1.019.374-2.039a.06.06,0,0,0-.118-.021l-.448,1.986c-.075.331-.149.662-.218.994-.032.153-.063.306-.1.46a1.282,1.282,0,0,0-.054.487c.01.056.092.1.131.041a2.484,2.484,0,0,0,.229-.871" transform="translate(-20.251 -17.624)" fill="#263238"/>
    <path id="패스_319" data-name="패스 319" d="M33.76,94.636l.736,8.358,2.5,28.217h22.1l3.12-28.217.921-8.358Z" transform="translate(-8.447 -23.679)" fill="#4e54ff"/>
    <path id="패스_320" data-name="패스 320" d="M33.76,94.636l.736,8.358H62.213l.921-8.358Z" transform="translate(-8.447 -23.679)" fill="#263238"/>
    <rect id="사각형_164" data-name="사각형 164" width="33.75" height="6.78" transform="translate(23.125 68.677)" fill="#4e54ff"/>
  </g>
</svg>
