<svg id="그룹_110" data-name="그룹 110" xmlns="http://www.w3.org/2000/svg" xmlns:xlink="http://www.w3.org/1999/xlink" width="220" height="236.102" viewBox="0 0 220 236.102">
  <defs>
    <clipPath id="clip-path">
      <rect id="사각형_154" data-name="사각형 154" width="220" height="236.102" fill="none"/>
    </clipPath>
    <clipPath id="clip-path-3">
      <rect id="사각형_130" data-name="사각형 130" width="25.173" height="17.159" fill="none"/>
    </clipPath>
  </defs>
  <g id="그룹_109" data-name="그룹 109" clip-path="url(#clip-path)">
    <path id="패스_159" data-name="패스 159" d="M126.222,208.1l2.1,12.583,14.214,76.763h2.291L134.49,220.686,132.963,208.1Z" transform="translate(-38.947 -64.211)" fill="#dbdbdb"/>
    <path id="패스_160" data-name="패스 160" d="M132.962,208.1h-6.74l2.1,12.583h6.169Z" transform="translate(-38.947 -64.211)" fill="#a6a6a6"/>
    <path id="패스_161" data-name="패스 161" d="M61.663,297.451h2.292L78.17,220.684l2.1-12.581H73.527L72,220.684Z" transform="translate(-19.027 -64.212)" fill="#dbdbdb"/>
    <path id="패스_162" data-name="패스 162" d="M78.14,208.1l-1.528,12.583h6.169l2.1-12.583Z" transform="translate(-23.639 -64.211)" fill="#a6a6a6"/>
    <path id="패스_163" data-name="패스 163" d="M11.864,208.1l-1.527,12.585L0,297.451H2.291l14.215-76.763L18.6,208.1Z" transform="translate(0 -64.211)" fill="#dbdbdb"/>
    <path id="패스_164" data-name="패스 164" d="M14.949,220.687h6.17l2.1-12.583h-6.74Z" transform="translate(-4.613 -64.212)" fill="#a6a6a6"/>
    <path id="패스_165" data-name="패스 165" d="M5.256,177.732h104.16V166.757H70.423l-13.1-76.245H9.227Z" transform="translate(-1.622 -27.928)" fill="#dbdbdb"/>
    <path id="패스_166" data-name="패스 166" d="M5.256,177.732h5.678l3.7-87.22H9.227Z" transform="translate(-1.622 -27.928)" fill="#c7c7c7"/>
    <g id="그룹_106" data-name="그룹 106">
      <g id="그룹_105" data-name="그룹 105" clip-path="url(#clip-path)">
        <path id="패스_167" data-name="패스 167" d="M101.7,65.524c2.338,17.13,10.614,47.957,18.3,52.008,7.2,3.8,30.187,5.386,42.559.178,2.833-1.193-1.292-24.922-4.546-24.464-7.2,1.013-24.236,3.692-27.557,1.942-2.957-1.559-14.4-23.685-20.291-34.031-7.14-12.539-9.888-6.078-8.462,4.368" transform="translate(-31.267 -16.744)" fill="#d3766a"/>
        <path id="패스_168" data-name="패스 168" d="M143.677,93.481l-2.771,30.477s-18.812-1.434-24.094-7.155-14.229-34.42-16.245-50.263,3.8-16.917,11.011-4.117,17.592,31.271,19.449,31.654,12.65-.6,12.65-.6" transform="translate(-30.906 -16.555)" fill="#4e54ff"/>
        <path id="패스_169" data-name="패스 169" d="M108.689,68.844a6.884,6.884,0,0,0-1.68.885,6.618,6.618,0,0,0,1.853-.422,6.745,6.745,0,0,0,1.68-.885,6.659,6.659,0,0,0-1.853.422m29.968,48.013a6.53,6.53,0,0,0-1.681.886,6.6,6.6,0,0,0,1.847-.429,6.319,6.319,0,0,0,1.68-.884,6.558,6.558,0,0,0-1.846.428m-15.413-21.11a6.776,6.776,0,0,0-1.681.886,6.617,6.617,0,0,0,1.853-.429,6.422,6.422,0,0,0,1.681-.885,6.691,6.691,0,0,0-1.853.428m-8.8-19.968a6.863,6.863,0,0,0-1.68.885,6.661,6.661,0,0,0,1.853-.422,6.767,6.767,0,0,0,1.68-.885,6.638,6.638,0,0,0-1.853.422m5.276,40.422a6.781,6.781,0,0,0-1.681.884,7.31,7.31,0,0,0,3.527-1.306,6.578,6.578,0,0,0-1.846.422m21.74-18.724a6.774,6.774,0,0,0-1.681.885,7.305,7.305,0,0,0,3.534-1.307,6.6,6.6,0,0,0-1.853.422m-11.541,24.29a7,7,0,0,0-.885-1.68,7.276,7.276,0,0,0,1.307,3.533,6.932,6.932,0,0,0-.422-1.853m2.6-20.618a6.692,6.692,0,0,0-.886-1.68,7.319,7.319,0,0,0,1.307,3.526,6.51,6.51,0,0,0-.421-1.846M112.991,85.273a6.565,6.565,0,0,0-.878-1.68,7.234,7.234,0,0,0,1.306,3.527,6.623,6.623,0,0,0-.428-1.846m-12.1-24.352a8.25,8.25,0,0,0-.5-1.093c-.042.256-.07.526-.1.8v.027c.042.145.09.291.145.436a6.8,6.8,0,0,0,.878,1.68,6.618,6.618,0,0,0-.421-1.853m38.68,46.748a6.963,6.963,0,0,0-1.819-.56,6.687,6.687,0,0,0,1.61,1.009,6.876,6.876,0,0,0,1.812.56,6.793,6.793,0,0,0-1.6-1.01m-18.3-2.966a6.889,6.889,0,0,0-1.81-.56,6.687,6.687,0,0,0,1.61,1.009,6.411,6.411,0,0,0,1.812.56,6.887,6.887,0,0,0-1.611-1.01m7.531,6.251a6.918,6.918,0,0,0-.56,1.812,6.658,6.658,0,0,0,1.01-1.6,6.962,6.962,0,0,0,.56-1.818,6.681,6.681,0,0,0-1.01,1.611M111.753,96.239a6.914,6.914,0,0,0-.56,1.812,6.788,6.788,0,0,0,1.01-1.6,7.053,7.053,0,0,0,.56-1.819,6.932,6.932,0,0,0-1.01,1.611M103.476,79.16a6.879,6.879,0,0,0-.54,1.68v.007c.007.028.013.049.021.076a6.62,6.62,0,0,0,.968-1.556,6.914,6.914,0,0,0,.56-1.812,6.667,6.667,0,0,0-1.01,1.6m5.531-18.945a6.389,6.389,0,0,0-.449,1.542,5.372,5.372,0,0,0,.76-1.113c-.1-.145-.208-.29-.311-.428M122.643,83.62a7,7,0,0,0-.906,1.487,6.411,6.411,0,0,0-.56,1.812,6.656,6.656,0,0,0,1-1.6,6.814,6.814,0,0,0,.525-1.591Z" transform="translate(-30.945 -18.461)" fill="#fff"/>
        <path id="패스_170" data-name="패스 170" d="M153.291,112.523c-1.044,6.97-1.8,13.983-2.555,20.99-.212,1.981-.4,3.964-.64,5.941a.055.055,0,0,0,.107.018c.524-3.485,1.139-6.954,1.616-10.446s.884-7,1.207-10.508c.183-1.984.372-3.969.5-5.958.01-.149-.211-.192-.233-.038" transform="translate(-46.313 -34.69)" fill="#263238"/>
        <path id="패스_171" data-name="패스 171" d="M125.846,121.669c-3.74-1.072-7.2-2.538-9.037-4.522-5.282-5.725-14.222-34.42-16.241-50.267-.83-6.534-.332-10.552,1.051-12.122Z" transform="translate(-30.907 -16.896)" fill="#263238"/>
        <path id="패스_172" data-name="패스 172" d="M287.722,313.723c-1.924.662-57.148.857-59.253-.479-.811-.491-1.309-8.533-1.631-18.269,0-.024-1.865-2.236-4.646-5.508h37.175l3.093,4.683-.017.6s21.174,9.375,23.337,11.084c2.144,1.7,3.867,7.241,1.941,7.888" transform="translate(-68.559 -89.318)" fill="#37474f"/>
        <path id="패스_173" data-name="패스 173" d="M289.8,315.81c-1.926.657-57.148.852-59.255-.479-.808-.493-1.306-8.535-1.628-18.274,0-.1,0-.2-.007-.305l35.625-.52-.01.6s21.169,9.38,23.333,11.084c2.144,1.7,3.87,7.241,1.943,7.891" transform="translate(-70.632 -91.406)" fill="#ffc727"/>
        <path id="패스_174" data-name="패스 174" d="M291,321.413c-9.312-.2-46.877-.107-56.1.408-.076,0-.076.054,0,.056,9.224.4,46.79,0,56.1-.312.2,0,.193-.146,0-.151" transform="translate(-72.464 -99.144)" fill="#263238"/>
        <path id="패스_175" data-name="패스 175" d="M281.27,296.244c-3.667-.671-8.145-.1-10.935,2.527-.107.1.037.251.154.215a51.71,51.71,0,0,1,10.767-2.28.234.234,0,0,0,.015-.461" transform="translate(-83.403 -91.328)" fill="#263238"/>
        <path id="패스_176" data-name="패스 176" d="M285.1,298.534c-3.665-.671-8.145-.09-10.933,2.527-.107.1.037.251.156.215A51.654,51.654,0,0,1,285.088,299a.234.234,0,0,0,.012-.461" transform="translate(-84.584 -92.034)" fill="#263238"/>
        <path id="패스_177" data-name="패스 177" d="M288.934,300.825c-3.667-.671-8.145-.09-10.935,2.529-.107.1.037.254.154.215a51.553,51.553,0,0,1,10.767-2.28.235.235,0,0,0,.015-.464" transform="translate(-85.767 -92.744)" fill="#263238"/>
        <path id="패스_178" data-name="패스 178" d="M287.986,284.265c-1.448-1.978-4.124-1.079-5.649.21a19.567,19.567,0,0,0-5.61,8.413.1.1,0,0,0,.085.132c.012.278.264.574.576.457,3.022-1.133,6.392-1.968,8.972-3.989,1.511-1.182,3-3.352,1.626-5.222m-6.37,6.558c-1.472.6-2.964,1.113-4.414,1.758a58.241,58.241,0,0,1,3.384-4.841,21.107,21.107,0,0,1,1.938-2.1c1.084-.994,5.391-3.12,4.761.9-.352,2.219-3.916,3.586-5.669,4.29" transform="translate(-85.384 -87.358)" fill="#263238"/>
        <path id="패스_179" data-name="패스 179" d="M261.861,293.031c3.025,1.277,6.494,1.2,9.707,1.5a.457.457,0,0,0,.437-.591.1.1,0,0,0,.046-.151,19.539,19.539,0,0,0-7.62-6.648c-1.809-.845-4.629-1.013-5.505,1.272-.83,2.166,1.167,3.872,2.935,4.617m-1.663-2.6c-1.663-3.716,3.052-2.793,4.36-2.119a21.413,21.413,0,0,1,2.417,1.526,58.4,58.4,0,0,1,4.536,3.787c-1.572-.247-3.147-.354-4.719-.537-1.88-.225-5.679-.608-6.594-2.656" transform="translate(-79.835 -88.424)" fill="#263238"/>
        <path id="패스_180" data-name="패스 180" d="M212.69,243.8l-21.512,2.113L169.9,248s-43.123-55.857-45.76-58.5c-5.981-5.99-53.245-20.319-66.157-33.153-13.671-13.585-7.706-30.763-7.706-30.763H86S85.9,139.5,87.8,140.094c20.6,6.4,59.423,20.414,68.337,28.287,15.994,14.136,56.55,75.416,56.55,75.416" transform="translate(-15.115 -38.749)" fill="#263238"/>
        <path id="패스_181" data-name="패스 181" d="M260.207,287.066c-6.05.571-4.321.322-10.364.959-2.957.313-22.388,2.383-25.093,3.159a.065.065,0,0,0,.015.125c2.813.137,22.2-2.273,25.154-2.642,6.028-.757,4.29-.605,10.308-1.428a.087.087,0,0,0-.02-.173" transform="translate(-69.337 -88.577)" fill="#37474f"/>
        <path id="패스_182" data-name="패스 182" d="M191.178,245.911,169.9,248s-43.123-55.857-45.76-58.5c-5.981-5.989-53.246-20.319-66.156-33.153-13.671-13.585-7.706-30.763-7.706-30.763H64.4l2.247.608Z" transform="translate(-15.115 -38.749)" fill="#37474f"/>
        <path id="패스_183" data-name="패스 183" d="M188.338,329.041c-1.937.625-57.155-.09-59.237-1.453-.8-.508-1.166-8.557-1.327-18.3,0-.1,0-.205,0-.308-.038-2.007-.063-4.075-.067-6.169,0-.288,0-.576-.01-.862l35.972.1-.043,1.121-.222,5.874-.022.605s21.012,9.729,23.147,11.47c2.117,1.733,3.75,7.3,1.812,7.92" transform="translate(-39.402 -93.17)" fill="#37474f"/>
        <path id="패스_184" data-name="패스 184" d="M188.372,332.184c-1.937.623-57.155-.093-59.237-1.458-.8-.5-1.166-8.555-1.327-18.3,0-.1,0-.205,0-.305l35.63.063-.022.605s21.012,9.727,23.148,11.467c2.115,1.736,3.749,7.3,1.81,7.922" transform="translate(-39.436 -96.308)" fill="#ffc727"/>
        <path id="패스_185" data-name="패스 185" d="M189.48,337.739c-9.3-.349-46.868-.879-56.093-.518-.076,0-.076.054,0,.059,9.215.547,46.782.771,56.091.61.2,0,.2-.144,0-.151" transform="translate(-41.141 -104.015)" fill="#263238"/>
        <path id="패스_186" data-name="패스 186" d="M180.155,312.3c-3.656-.73-8.143-.227-10.977,2.346-.109.1.035.254.155.22a51.368,51.368,0,0,1,10.8-2.1.234.234,0,0,0,.022-.461" transform="translate(-52.189 -96.269)" fill="#263238"/>
        <path id="패스_187" data-name="패스 187" d="M183.946,314.654c-3.654-.728-8.141-.225-10.974,2.346-.109.1.035.256.153.217a51.7,51.7,0,0,1,10.8-2.1.235.235,0,0,0,.02-.464" transform="translate(-53.359 -96.996)" fill="#263238"/>
        <path id="패스_188" data-name="패스 188" d="M187.74,317.01c-3.655-.732-8.141-.225-10.974,2.346-.109.1.033.256.153.217a51.7,51.7,0,0,1,10.8-2.1.235.235,0,0,0,.021-.464" transform="translate(-54.531 -97.721)" fill="#263238"/>
        <path id="패스_189" data-name="패스 189" d="M187.015,300.442c-1.414-2-4.105-1.145-5.651.12a19.546,19.546,0,0,0-5.751,8.315.1.1,0,0,0,.085.134c.006.278.253.579.569.464,3.038-1.082,6.422-1.86,9.038-3.84,1.528-1.155,3.047-3.3,1.709-5.193M180.54,306.9c-1.482.566-2.982,1.057-4.442,1.682a58.137,58.137,0,0,1,3.464-4.785,21.2,21.2,0,0,1,1.969-2.073c1.1-.977,5.444-3.032,4.746.979-.385,2.212-3.971,3.518-5.737,4.2" transform="translate(-54.185 -92.336)" fill="#263238"/>
        <path id="패스_190" data-name="패스 190" d="M160.8,308.735c3,1.326,6.473,1.3,9.679,1.658a.455.455,0,0,0,.447-.583.1.1,0,0,0,.052-.149,19.542,19.542,0,0,0-7.51-6.77c-1.8-.876-4.613-1.091-5.527,1.182-.867,2.148,1.1,3.887,2.859,4.663m-1.62-2.632c-1.6-3.745,3.1-2.744,4.393-2.046a20.738,20.738,0,0,1,2.393,1.563,57.7,57.7,0,0,1,4.473,3.86c-1.566-.273-3.138-.4-4.711-.618-1.875-.251-5.665-.7-6.548-2.759" transform="translate(-48.669 -93.269)" fill="#263238"/>
        <path id="패스_191" data-name="패스 191" d="M134.036,254.749l-40.213.9s4.893-59.094,4.016-64.27c-.406-2.4-48.549-9.446-64.006-25.658-13.3-13.954-1.049-40.121-1.049-40.121l46.387-.018S79.5,136.171,76.008,141c-.192.265-2.308,3.315-2.308,3.315s50.963,12.153,57.343,24.62c6.813,13.313,2.993,85.813,2.993,85.813" transform="translate(-8.527 -38.749)" fill="#263238"/>
        <path id="패스_192" data-name="패스 192" d="M156.369,194.527c-.255-3.273-.626-6.536-1.168-9.772-.27-1.608-.575-3.209-.939-4.8a15,15,0,0,0-1.47-4.2c-1.432-2.493-4.083-4.078-6.5-5.483A65.3,65.3,0,0,0,138.1,166.3c-5.819-2.375-11.848-4.207-17.827-6.123-3.6-1.155-7.2-2.312-10.819-3.428-3.679-1.136-7.4-2.136-11.057-3.335-.081-.027-.107.1-.027.129,3.2,1.074,6.346,2.311,9.529,3.447q4.664,1.67,9.354,3.264,4.656,1.589,9.312,3.185c2.9.991,5.807,1.945,8.669,3.04A77.313,77.313,0,0,1,143.4,170.1a27.51,27.51,0,0,1,7.094,4.7c2.115,2.164,2.56,5.32,3.127,8.168.643,3.231,1.1,6.5,1.438,9.779.754,7.238,1.3,14.058,1.6,21.32.02.492.265.9.271.414.084-6.65-.045-13.319-.56-19.951" transform="translate(-30.338 -47.337)" fill="#37474f"/>
        <path id="패스_193" data-name="패스 193" d="M104.666,192.416a2.641,2.641,0,0,0-1.756-1.879c-2.276-1.045-4.627-1.948-6.975-2.816-9.3-3.441-18.915-5.928-28.291-9.142A117.887,117.887,0,0,1,53.7,172.908c-2.213-1.091-4.38-2.28-6.478-3.579a35.476,35.476,0,0,1-6.228-4.673c-7.949-7.769-7.413-19.725-5.624-29.817.244-1.377.507-2.751.77-4.127a.066.066,0,0,0-.128-.028c-1.92,9.954-3.979,21.162,1.614,30.372,2.582,4.253,6.761,7.113,10.975,9.581a91.349,91.349,0,0,0,13.551,6.381c9.282,3.562,18.921,6.064,28.348,9.2,2.41.8,4.808,1.641,7.179,2.551q1.762.676,3.5,1.407c1.067.448,2.762.865,3.109,2.126a5.5,5.5,0,0,1,.029,1.816q-.081,1.13-.16,2.261l-.311,4.4q-.307,4.343-.613,8.688Q102,226.96,100.794,244.456c-.1,1.428-.2,2.856-.292,4.285-.012.165.244.149.256-.013.869-11.622,1.682-23.248,2.5-34.873l1.238-17.5q.071-1.013.144-2.024a7.872,7.872,0,0,0,.02-1.919" transform="translate(-10.49 -40.309)" fill="#37474f"/>
        <path id="패스_194" data-name="패스 194" d="M49.159,134.967c-.018-.07-.136-.062-.13.015a12.7,12.7,0,0,1-.381,5.258,7.646,7.646,0,0,1-2.486,3.326c-2.642,2.117-5.989,2.391-9.142,3.219a.136.136,0,0,0,.03.267c3.4-.043,7.126-.784,9.809-2.988a7.747,7.747,0,0,0,2.53-3.6,10,10,0,0,0-.231-5.494" transform="translate(-11.393 -41.63)" fill="#37474f"/>
        <path id="패스_195" data-name="패스 195" d="M163.286,303.095c-6.077-.056-4.332-.125-10.409-.11-2.974.007-22.513.071-25.286.564-.06.01-.059.112,0,.125,2.783.425,22.319.02,25.291-.044,6.075-.132,4.33-.159,10.4-.359a.088.088,0,0,0,0-.176" transform="translate(-39.356 -93.487)" fill="#37474f"/>
        <path id="패스_196" data-name="패스 196" d="M88.461,127.719c-.178,2.23-.3,4.468-.574,6.688-.126,1.044-.226,2.109-.43,3.143a2.02,2.02,0,0,1-.565,1.2,2.518,2.518,0,0,1-1.345.458,1.463,1.463,0,0,1-1.813-1.425c-.187-2.031.407-9.089.422-9.672,0-.112-.373-.117-.388-.006-.546,4.453-1.28,10.134-.342,11.1a2.982,2.982,0,0,0,3.872.27,2.782,2.782,0,0,0,.848-1.813c.143-.972.188-1.967.261-2.946.173-2.328.376-4.653.42-6.99,0-.206-.35-.217-.366-.01" transform="translate(-25.604 -39.362)" fill="#37474f"/>
        <path id="패스_197" data-name="패스 197" d="M86.283,145.38a6.35,6.35,0,0,0-.17.845c-.057.284-.12.569-.19.848s-.132.564-.206.845-.121.56-.183.845a.108.108,0,0,0,.2.067,6.962,6.962,0,0,0,.341-.792c.094-.282.187-.564.261-.851s.139-.564.2-.848a4.241,4.241,0,0,0,.151-.883c0-.205-.338-.277-.407-.076" transform="translate(-26.391 -44.821)" fill="#37474f"/>
        <path id="패스_198" data-name="패스 198" d="M85.442,115.625c-1.487.98-57.708-4.528-57.9-4.938-.176-.36,21.92-58.228,43.27-63.338,3.384-.81,11.793.97,12.574,2.3,6.51,11.093,2.992,65.359,2.056,65.975" transform="translate(-8.498 -14.547)" fill="#4e54ff"/>
        <path id="패스_199" data-name="패스 199" d="M58.241,59.387a6.482,6.482,0,0,0-1.68.885,7.5,7.5,0,0,0,3.526-1.307,6.564,6.564,0,0,0-1.846.422m30.1,5.455c-.125.034-.242.076-.367.117a6.881,6.881,0,0,0-1.68.885,6.621,6.621,0,0,0,1.853-.422c.076-.027.152-.062.228-.1-.007-.165-.021-.325-.035-.483m-53.02,35.319a6.532,6.532,0,0,0-1.68.885,6.527,6.527,0,0,0,1.846-.429,6.291,6.291,0,0,0,1.68-.885,6.6,6.6,0,0,0-1.846.429M71.343,75.8a7.023,7.023,0,0,0-1.68.885,6.592,6.592,0,0,0,1.853-.422,6.741,6.741,0,0,0,1.681-.885,6.912,6.912,0,0,0-1.853.422M63.488,98.453a6.49,6.49,0,0,0-1.68.878,7.316,7.316,0,0,0,3.526-1.307,6.6,6.6,0,0,0-1.846.429M50.517,82.585a6.824,6.824,0,0,0-1.673.885,6.617,6.617,0,0,0,1.846-.422,6.532,6.532,0,0,0,1.68-.885,6.621,6.621,0,0,0-1.853.422m13.414,30.389a6.591,6.591,0,0,0-1.674.885,6.581,6.581,0,0,0,1.846-.429,6.308,6.308,0,0,0,1.68-.884,6.647,6.647,0,0,0-1.853.428M80.429,97.8a6.609,6.609,0,0,0-1.673.886,6.576,6.576,0,0,0,1.846-.429,6.286,6.286,0,0,0,1.68-.885,6.676,6.676,0,0,0-1.853.428M64.512,51.573l-.242.2a3.8,3.8,0,0,0,.353.54,4.264,4.264,0,0,0-.111-.74M48.934,99.048a6.75,6.75,0,0,0-.885-1.68,6.648,6.648,0,0,0,.429,1.853,6.324,6.324,0,0,0,.885,1.68,6.637,6.637,0,0,0-.429-1.853m21.995-9.569a6.335,6.335,0,0,0-.885-1.681,6.833,6.833,0,0,0,.428,1.846,6.543,6.543,0,0,0,.885,1.68,6.517,6.517,0,0,0-.428-1.846M63.15,68.825a6.836,6.836,0,0,0-.885-1.674A6.572,6.572,0,0,0,62.687,69a6.749,6.749,0,0,0,.885,1.68,6.64,6.64,0,0,0-.422-1.853M80.173,57.036a6.77,6.77,0,0,0-.885-1.68,6.626,6.626,0,0,0,.428,1.853,6.744,6.744,0,0,0,.878,1.68,6.65,6.65,0,0,0-.422-1.853M75.63,47.8a6.9,6.9,0,0,0-1.812-.56,6.683,6.683,0,0,0,1.611,1.01,6.407,6.407,0,0,0,1.812.56A6.922,6.922,0,0,0,75.63,47.8M56.712,91.1a6.408,6.408,0,0,0-1.812-.56,7.523,7.523,0,0,0,3.422,1.57,6.662,6.662,0,0,0-1.611-1.01m23.543,20.521a6.67,6.67,0,0,0-1.812-.56,7,7,0,0,0,1.6,1c.131.056.256.117.387.173.338.014.67.048,1.01.062a7.875,7.875,0,0,0-1.19-.678m-37.7-4.107a6.716,6.716,0,0,0-1.818-.56,6.687,6.687,0,0,0,1.611,1.01,6.894,6.894,0,0,0,1.812.56,6.8,6.8,0,0,0-1.6-1.01M80.187,85.668a6.866,6.866,0,0,0-1.819-.56,6.668,6.668,0,0,0,1.611,1.009,6.9,6.9,0,0,0,1.812.56,6.67,6.67,0,0,0-1.6-1.01M75.63,65.755a6.431,6.431,0,0,0-1.812-.56,7.509,7.509,0,0,0,3.423,1.57,6.67,6.67,0,0,0-1.611-1.01m-42.482,45.5.339.042a4.453,4.453,0,0,0,.152-.7,4.878,4.878,0,0,0-.491.657M51.8,71.369a6.891,6.891,0,0,0-.56,1.812,6.676,6.676,0,0,0,1.01-1.6,6.421,6.421,0,0,0,.56-1.812,6.7,6.7,0,0,0-1.01,1.6M71,104.656a6.961,6.961,0,0,0-.56,1.818,6.706,6.706,0,0,0,1.01-1.611,6.9,6.9,0,0,0,.56-1.811,6.785,6.785,0,0,0-1.01,1.6m11.754-29.38a6.916,6.916,0,0,0-.56,1.812,6.506,6.506,0,0,0,1.01-1.6,6.9,6.9,0,0,0,.56-1.812,6.676,6.676,0,0,0-1.01,1.6M56.484,106.37a6.89,6.89,0,0,0-.56,1.812,6.787,6.787,0,0,0,1.009-1.6,7.013,7.013,0,0,0,.56-1.818,6.691,6.691,0,0,0-1.01,1.611M41.438,90.28a6.41,6.41,0,0,0-.56,1.812,6.669,6.669,0,0,0,1.009-1.611,6.88,6.88,0,0,0,.56-1.812,6.7,6.7,0,0,0-1.01,1.611m20.474-8.989a6.641,6.641,0,0,0-.567,1.818,7.326,7.326,0,0,0,1.57-3.422,6.83,6.83,0,0,0-1,1.6M69.442,57.8a6.421,6.421,0,0,0-.56,1.812,6.653,6.653,0,0,0,1.01-1.6,6.939,6.939,0,0,0,.56-1.818,6.691,6.691,0,0,0-1.01,1.611" transform="translate(-10.228 -14.576)" fill="#fff"/>
        <path id="패스_200" data-name="패스 200" d="M98.226,51.911c-3.172-.2-6.878-6.265-7.77-10.538-.06-.294,1.129-2.825,2.43-5.969.78-1.911,1.605-4.057,2.217-6.071l11.693,6.9a33.527,33.527,0,0,0-3.566,7.359,4.654,4.654,0,0,0-.165.852c-.007.039-.01.089-.023.143-.222,1.647-1.75,7.513-4.817,7.322" transform="translate(-27.91 -9.051)" fill="#d3766a"/>
        <path id="패스_201" data-name="패스 201" d="M108.948,36.324a33.385,33.385,0,0,0-3.571,7.364,4.258,4.258,0,0,0-.164.849.79.79,0,0,1-.024.137,6.942,6.942,0,0,1-1.321-.324c-7.294-2.4-6.6-12.121-6.277-14.727Z" transform="translate(-30.056 -9.14)" fill="#263238"/>
        <path id="패스_202" data-name="패스 202" d="M104.347,5.967C100.6,9.114,95.315,21.8,96.465,26.135c1.667,6.291,8.064,10.942,14.335,8.1,6.079-2.755,12.678-19.4,11.051-23.725-2.4-6.364-11.971-9.19-17.5-4.542" transform="translate(-29.716 -1.13)" fill="#d3766a"/>
        <path id="패스_203" data-name="패스 203" d="M95.3,34.218s0-.006,0,0" transform="translate(-29.405 -10.557)" fill="none" stroke="#d3766a" stroke-linecap="round" stroke-linejoin="round" stroke-width="0"/>
        <path id="패스_204" data-name="패스 204" d="M122.3,14.936c-5.45.982-9.207-5.9-9.207-5.9a4.966,4.966,0,0,1-5.886.8s-3.993,6.683-5.844,5.834c-2.826-1.292.626-11.3,2.369-12.79a5.537,5.537,0,0,1,4.363-.891A5.077,5.077,0,0,1,111.284.051c2.6-.611,8.38,4.387,8.38,4.387A6.812,6.812,0,0,1,122.412,2.9a1.919,1.919,0,0,1,2.417,1.366A4.58,4.58,0,0,0,123.367,5.7c-1.263,1.914.425,2.671,1.252.792a3.208,3.208,0,0,0,.21-2.224c1.382-.85,2.92-.637,3.451.39.962,1.863-1.449,9.467-5.98,10.281" transform="translate(-30.945 0)" fill="#263238"/>
        <path id="패스_205" data-name="패스 205" d="M116.879,27.857c.006-.035-.083.014-.1.05-.309.866-.808,1.806-1.694,1.786-.027,0-.042.044-.011.051,1,.238,1.647-1.017,1.8-1.887" transform="translate(-35.503 -8.592)" fill="#263238"/>
        <path id="패스_206" data-name="패스 206" d="M116.286,26.094c-1.334-.645-2.526,2.072-1.289,2.669,1.216.588,2.408-2.129,1.289-2.669" transform="translate(-35.323 -8.021)" fill="#263238"/>
        <path id="패스_207" data-name="패스 207" d="M124.593,30.982c.022-.03.049.068.033.1-.4.83-.709,1.848-.071,2.461.02.019,0,.06-.028.044-.87-.538-.441-1.884.066-2.607" transform="translate(-38.27 -9.558)" fill="#263238"/>
        <path id="패스_208" data-name="패스 208" d="M125.8,30.172c1.4.491.314,3.252-.983,2.8-1.274-.448-.19-3.209.983-2.8" transform="translate(-38.336 -9.297)" fill="#263238"/>
        <path id="패스_209" data-name="패스 209" d="M116.08,22.955a11.506,11.506,0,0,0,1.216.091,1.969,1.969,0,0,0,1.256-.143.63.63,0,0,0,.214-.736,1.559,1.559,0,0,0-1.373-.777,2.286,2.286,0,0,0-1.6.377.669.669,0,0,0,.291,1.189" transform="translate(-35.645 -6.594)" fill="#263238"/>
        <path id="패스_210" data-name="패스 210" d="M128.073,27.77a11.379,11.379,0,0,1-.957-.754,1.97,1.97,0,0,1-.83-.955.628.628,0,0,1,.342-.686,1.556,1.556,0,0,1,1.536.354,2.287,2.287,0,0,1,.928,1.36.67.67,0,0,1-1.018.681" transform="translate(-38.961 -7.802)" fill="#263238"/>
        <path id="패스_211" data-name="패스 211" d="M111.6,38.034a1.39,1.39,0,0,0,.327.884,2.417,2.417,0,0,0,.944.375.033.033,0,0,1,0,.062,1.238,1.238,0,0,1-1.243-.257.979.979,0,0,1-.129-1.08c.02-.052.089-.028.1.016" transform="translate(-34.374 -11.721)" fill="#263238"/>
        <path id="패스_212" data-name="패스 212" d="M114.753,31.867a3.133,3.133,0,0,0,1.354,2.114,3.962,3.962,0,0,0,1.01.5c.07.028.331.1.405.116a.227.227,0,0,0,.25-.114l0-.006c.013-.031.735-1.824.735-1.824.184.222,1.154,1.3,1.283.948a47.158,47.158,0,0,0,2.692-9.161.085.085,0,0,0-.164-.045c-1.129,2.723-1.772,5.627-2.864,8.382a5.463,5.463,0,0,0-1.172-1c-.055-.01-.844,2.26-.857,2.276a4.336,4.336,0,0,1-2.562-2.222c-.042-.075-.133-.048-.112.042" transform="translate(-35.408 -7.51)" fill="#263238"/>
        <path id="패스_213" data-name="패스 213" d="M123.485,30.335c.847-1.878,2.546-2.95,3.789-2.39s1.565,2.545.717,4.423-2.546,2.95-3.79,2.39-1.562-2.544-.715-4.423m.457.206c-.735,1.626-.525,3.312.466,3.759s2.393-.512,3.126-2.139.525-3.313-.466-3.76-2.393.512-3.126,2.139" transform="translate(-37.957 -8.577)" fill="#ffc727"/>
        <path id="패스_214" data-name="패스 214" d="M111.156,24.872a3.5,3.5,0,1,1,1.646,4.841,3.624,3.624,0,0,1-1.646-4.841m.457.206a3,3,0,1,0,5.449,2.457,3,3,0,1,0-5.449-2.457" transform="translate(-34.189 -6.977)" fill="#ffc727"/>
        <path id="패스_215" data-name="패스 215" d="M120.491,29.266c1.975.171,2.494,1.076,2.5,1.085l.444-.232c-.023-.047-.621-1.155-2.9-1.352Z" transform="translate(-37.179 -8.876)" fill="#ffc727"/>
        <path id="패스_216" data-name="패스 216" d="M107.17,23.077l.286-.411c-.272-.189-6.644-4.607-7.382-4.991-.774-.416-3.1-.2-3.367-.177l.046.5a9.579,9.579,0,0,1,3.055.107l.034.016c.566.295,5.04,3.371,7.327,4.957" transform="translate(-29.839 -5.376)" fill="#ffc727"/>
        <path id="패스_217" data-name="패스 217" d="M100.4,21.616s-.291-5.325-2.55-5.446-3.65,6.474-2.129,8.439a2.367,2.367,0,0,0,3.367.592Z" transform="translate(-29.339 -4.989)" fill="#d3766a"/>
        <path id="패스_218" data-name="패스 218" d="M98.175,18.916c-.029-.023-.063.018-.043.046a5.98,5.98,0,0,1,.653,4.814c-.094-.77-.481-1.4-1.473-1.336-.052,0-.052.082-.009.1A1.458,1.458,0,0,1,98.4,23.816a7.153,7.153,0,0,1-.032,1.507c-.012.164.253.236.294.064,0-.012,0-.026.009-.039,1.133-1.747,1.3-5.075-.493-6.432" transform="translate(-30.014 -5.835)" fill="#263238"/>
        <path id="패스_219" data-name="패스 219" d="M102.449,55.555a.021.021,0,0,0-.042,0c-.211,2.584-.869,8.553-4.834,7.612A8.642,8.642,0,0,1,93.557,60.4a22.877,22.877,0,0,1-2.911-3.949,33.666,33.666,0,0,1-2.534-4.9c-.028-.071-.14-.016-.109.057.727,1.7,1.288,3.444,2.178,5.078a19.847,19.847,0,0,0,3.126,4.357,8.616,8.616,0,0,0,4.3,2.761,3.272,3.272,0,0,0,3.647-1.968,14.455,14.455,0,0,0,1.193-6.281" transform="translate(-27.153 -15.896)" fill="#263238"/>
        <path id="패스_220" data-name="패스 220" d="M101.7,49.2l-4.213,7.12L89.532,45.276l-3.145,2.67s6.882,16.669,7.045,15.989l4.131-6.06,3.815,5.243,1.388-11.48Z" transform="translate(-26.655 -13.97)" fill="#ebebeb"/>
        <path id="패스_221" data-name="패스 221" d="M102.286,58.647c.165-1.9.385-3.815.463-5.724,0-.068-.1-.114-.125-.037-.657,1.761-1.251,9.042-1.525,10.768,0-.007-.012-.015-.016-.023-.159-.226-3.569-4.646-3.619-4.592-.837.934-3.864,5.344-4.087,5.754-1.087-2.647-5.811-13.149-7.186-15.7a.066.066,0,0,0-.123.048c.9,2.757,6.959,16.589,7.078,16.573A74.494,74.494,0,0,0,97.477,59.3c.549.934,3.923,5.848,3.979,5.571a59.887,59.887,0,0,0,.83-6.22" transform="translate(-26.556 -15.135)" fill="#263238"/>
        <path id="패스_222" data-name="패스 222" d="M163.869,126.906c-2.02-2.507,7.8-20.3,11.058-20.844.613-.1,1.511-.221,3.5-.677l.006-.009a46.77,46.77,0,0,0,12.721-5c4.646-2.876,11.213-7.679,12.853-5.238,2.4,3.55-5.172,10.621-9.768,14.415,3.022,1.165,5.518,2.451,6.693,3.733,3.911,4.257-12.87,24.131-18.68,23.239-5.6-.859-16.366-7.108-18.383-9.615" transform="translate(-50.479 -29.148)" fill="#d3766a"/>
        <path id="패스_223" data-name="패스 223" d="M84.711,124.584c.172-1.732.585-10.2-5.735-12.3-7.912-2.631-11.8,2.456-16.337,3.522-8.884,2.084-23.194-9.685-37.434-3.688s-14.46,22.729-12.013,33.158,9.725,25.758,23.042,25.571c12.929-.181,17.957-10.369,24.852-12.9,6.284-2.307,24.136-.681,27.125-7.886,1.994-4.8-3.668-4.958-4.8-7.7-1.075-2.6,1.418-4.652,1.89-5.868,1.074-2.765-.588-11.91-.588-11.91" transform="translate(-3.706 -34.063)" fill="#ffc727"/>
        <g id="그룹_104" data-name="그룹 104" transform="translate(48.455 102.544)" opacity="0.1">
          <g id="그룹_103" data-name="그룹 103">
            <g id="그룹_102" data-name="그룹 102" clip-path="url(#clip-path-3)">
              <path id="패스_224" data-name="패스 224" d="M70.963,153.731l8.464-2.349a8.938,8.938,0,0,0,7.463,2.349c4.33-.824,5.9-5.079,5.9-5.079l1.916-.347a8.382,8.382,0,0,1,.383,4.678c-.967,5.1-12.766,15.695-21.039,11.534-6.476-3.257-3.09-10.786-3.09-10.786" transform="translate(-70.078 -148.305)"/>
            </g>
          </g>
        </g>
        <path id="패스_225" data-name="패스 225" d="M96.8,141.273a8.315,8.315,0,1,1-8.314-8.313,8.316,8.316,0,0,1,8.314,8.313" transform="translate(-24.739 -41.025)" fill="#4e54ff"/>
        <path id="패스_226" data-name="패스 226" d="M95.7,142.169a6.31,6.31,0,1,1-6.309-6.309,6.309,6.309,0,0,1,6.309,6.309" transform="translate(-25.634 -41.921)" fill="#263238"/>
        <path id="패스_227" data-name="패스 227" d="M186.357,108.965l1.489,6.35-86.7,22.966L98.449,126.8Z" transform="translate(-30.378 -33.622)" fill="#c7c7c7"/>
        <rect id="사각형_131" data-name="사각형 131" width="3.609" height="13.671" transform="translate(37.059 99.179) rotate(-13.206)" fill="#fff"/>
        <rect id="사각형_132" data-name="사각형 132" width="0.994" height="2.662" transform="translate(159.282 69.236) rotate(-15.294)" fill="#263238"/>
        <rect id="사각형_133" data-name="사각형 133" width="3.318" height="1.988" transform="matrix(0.965, -0.264, 0.264, 0.965, 157.898, 68.584)" fill="#263238"/>
        <rect id="사각형_134" data-name="사각형 134" width="0.994" height="2.662" transform="translate(163.928 67.983) rotate(-15.294)" fill="#263238"/>
        <rect id="사각형_135" data-name="사각형 135" width="3.318" height="1.988" transform="matrix(0.965, -0.264, 0.264, 0.965, 162.544, 67.332)" fill="#263238"/>
        <rect id="사각형_136" data-name="사각형 136" width="0.994" height="2.662" transform="translate(168.574 66.731) rotate(-15.294)" fill="#263238"/>
        <rect id="사각형_137" data-name="사각형 137" width="3.318" height="1.987" transform="matrix(0.965, -0.264, 0.264, 0.965, 167.191, 66.079)" fill="#263238"/>
        <rect id="사각형_138" data-name="사각형 138" width="0.994" height="2.662" transform="matrix(0.996, -0.085, 0.085, 0.996, 161.988, 83.062)" fill="#263238"/>
        <rect id="사각형_139" data-name="사각형 139" width="3.318" height="1.988" transform="translate(160.972 84.823) rotate(-4.889)" fill="#263238"/>
        <rect id="사각형_140" data-name="사각형 140" width="0.994" height="2.662" transform="matrix(0.996, -0.085, 0.085, 0.996, 166.781, 82.634)" fill="#263238"/>
        <rect id="사각형_141" data-name="사각형 141" width="3.318" height="1.988" transform="translate(165.765 84.396) rotate(-4.889)" fill="#263238"/>
        <rect id="사각형_142" data-name="사각형 142" width="0.994" height="2.662" transform="matrix(0.996, -0.085, 0.085, 0.996, 171.575, 82.207)" fill="#263238"/>
        <rect id="사각형_143" data-name="사각형 143" width="3.318" height="1.988" transform="translate(170.558 83.968) rotate(-4.889)" fill="#263238"/>
        <path id="패스_228" data-name="패스 228" d="M247.918,108.282l-1.257-7.059s-2.3.089-4.714-2.941l-14.653,3.676-2.385,2.448,1.494,8.4,3.086,1.482,15.017-1.622c1.226-3.671,3.413-4.379,3.413-4.379m-19.119-1.9-.3-1.7,13.584-2.417.3,1.694Zm.874,4.915-.3-1.7,13.584-2.418.3,1.7Z" transform="translate(-69.398 -30.326)" fill="#ffc727"/>
        <path id="패스_229" data-name="패스 229" d="M54.134,132.446l14.93-3.252,14.945-3.182,29.893-6.35,29.922-6.2c9.977-2.058,19.947-4.144,29.938-6.132l-.028.017,3.352-4.65-3.278,4.7-.01.015-.018,0c-9.949,2.192-19.918,4.285-29.882,6.406L114,120.153l-29.927,6.189L69.114,129.43Z" transform="translate(-16.703 -31.687)" fill="#263238"/>
        <path id="패스_230" data-name="패스 230" d="M54.842,134.044l14.977-3.364,14.991-3.3,29.985-6.578c10-2.192,20.01-4.294,30.014-6.447,10.01-2.124,20.005-4.315,30.027-6.384L174.8,108l6.882-6.888-6.775,6.992-.015.017-.022,0c-9.98,2.263-19.986,4.4-29.979,6.614-10,2.18-19.984,4.41-29.99,6.552l-30.02,6.421-15.012,3.2Z" transform="translate(-16.922 -31.197)" fill="#263238"/>
        <path id="패스_231" data-name="패스 231" d="M187.361,99.843l-11.782,8.726-.018.013-.022,0-29.984,6.868c-10,2.268-19.984,4.6-30,6.818l-30.021,6.7-15.012,3.341L55.5,135.591l14.977-3.5,14.99-3.437,29.988-6.853c9.991-2.3,20.009-4.486,30.012-6.737l30.024-6.687-.039.018Z" transform="translate(-17.125 -30.808)" fill="#263238"/>
        <path id="패스_232" data-name="패스 232" d="M56.135,141.812l14.979-3.662,14.992-3.6,29.991-7.178c9.992-2.412,20.013-4.7,30.018-7.062l30.031-7.008.026-.006.025.007,13.306,3.81L176.144,113.5h.051l-29.987,7.2c-10,2.378-19.985,4.822-30,7.145l-30.027,7.025-15.016,3.5Z" transform="translate(-17.321 -34.959)" fill="#263238"/>
        <path id="패스_233" data-name="패스 233" d="M184.938,118.366l-8.989-3.612.046,0c-9.9,2.555-19.833,4.989-29.749,7.49l-29.763,7.43-29.8,7.3-14.9,3.641-14.916,3.574,14.859-3.8,14.877-3.735,29.756-7.456,29.79-7.321c9.935-2.417,19.855-4.9,29.8-7.263l.024-.006.021.01Z" transform="translate(-17.549 -35.364)" fill="#263238"/>
        <path id="패스_234" data-name="패스 234" d="M57.558,146.884l14.765-3.873,14.784-3.8,29.57-7.594,29.607-7.448c9.871-2.474,19.736-4.974,29.626-7.378l.019,0,.016.012,4.525,3.157-4.575-3.086.036.007c-9.838,2.6-19.7,5.114-29.557,7.649L116.8,132.1l-29.611,7.432-14.807,3.711Z" transform="translate(-17.76 -36.035)" fill="#263238"/>
        <path id="패스_235" data-name="패스 235" d="M199.581,113.79c-2.778,1.144.161,3.762.161,3.762s-5.138-2.75-7.545-.461c-2.314,2.209,1.346,5.248,1.606,5.469-.273-.144-5.06-2.546-7.242,0-2.266,2.649,1.932,5.068,2.2,5.222-.3-.054-4.281-.7-5.5,1.61-2.09,3.973,8.046,5.913,9.96,9.005,0,0-4.869,3.842-4.987,3.982,0,0,9.606,2.043,13.63-.77a3.136,3.136,0,0,0,1.158-3.755s3.026,1,4.807-.951c.911-1,.116-3.356.116-3.356a3.931,3.931,0,0,0,3.931-1.134c1.183-1.46.2-3.593.2-3.593s2.668-.421,3.392-2.306c1.469-3.8-9.946-15.171-15.895-12.726" transform="translate(-56.461 -35.006)" fill="#d3766a"/>
        <path id="패스_236" data-name="패스 236" d="M219.281,130.216a.043.043,0,0,0,.071-.048A27.927,27.927,0,0,0,206.9,119.149c-.166-.07-.352.17-.183.282a57.117,57.117,0,0,1,12.563,10.785" transform="translate(-63.764 -36.761)" fill="#263238"/>
        <path id="패스_237" data-name="패스 237" d="M212.708,137.54c.039.048.12-.018.085-.077a26.19,26.19,0,0,0-14.331-11.176c-.212-.061-.459.1-.222.183,3.982,1.475,11.106,7.09,14.468,11.069" transform="translate(-61.139 -38.963)" fill="#263238"/>
        <path id="패스_238" data-name="패스 238" d="M190.638,134.125c5.808,1.908,10.417,5.487,14.624,9.841.054.057.127-.026.1-.085-1.477-2.693-4.446-5.189-6.924-6.936a16.144,16.144,0,0,0-7.727-3.022c-.112-.012-.19.162-.068.2" transform="translate(-58.805 -41.322)" fill="#263238"/>
        <path id="패스_239" data-name="패스 239" d="M199.543,118.5c-.2-.083-.1.3-.3.222-.848-.322-6.129-1.83-7.2-.189-.856,1.316.319,3.379,1.082,3.994l1.917,1.547-2.338-.786a10.081,10.081,0,0,0-3.218-.557,3.606,3.606,0,0,0-2.761,1.03,2.059,2.059,0,0,0-.264,2.577,6.222,6.222,0,0,0,2.35,2.054l2.563,1.4-2.865-.48a9.52,9.52,0,0,0-2.416-.1,3.9,3.9,0,0,0-2.122.756,1.852,1.852,0,0,0-.646,1.844,4.1,4.1,0,0,0,1.385,1.827,32.294,32.294,0,0,0,4.247,2.751c.735.433,1.476.868,2.194,1.338a6.085,6.085,0,0,1,1.9,1.714,6.571,6.571,0,0,0-2.024-1.512c-.747-.409-1.512-.784-2.278-1.16a27.463,27.463,0,0,1-4.485-2.583,4.8,4.8,0,0,1-1.732-2.14,2.635,2.635,0,0,1,.85-2.759,4.77,4.77,0,0,1,2.606-1.007,10.4,10.4,0,0,1,2.69.066l-.3.917a7.13,7.13,0,0,1-2.8-2.4,2.972,2.972,0,0,1-.459-1.968,3.381,3.381,0,0,1,.864-1.8,4.543,4.543,0,0,1,3.5-1.3,10.946,10.946,0,0,1,3.529.665l-.421.76c-.944-.815-2.506-2.977-1.438-5.186,1.826-2.668,7.41-.083,8.4.461" transform="translate(-56.287 -36.056)" fill="#263238"/>
        <path id="패스_240" data-name="패스 240" d="M206.446,117.434a6.029,6.029,0,0,1-.876-1.621,1.392,1.392,0,0,1,.229-1.4,2.829,2.829,0,0,1,1.453-.7c.593-.127,1.221-.229,1.875-.31a4.839,4.839,0,0,0-1.958-.342,2.813,2.813,0,0,0-2,.792,2.016,2.016,0,0,0-.461,1.1,2.105,2.105,0,0,0,.259,1.1,3.227,3.227,0,0,0,1.479,1.367" transform="translate(-63.164 -34.887)" fill="#263238"/>
        <path id="패스_241" data-name="패스 241" d="M103.7,149.419s-2.983-4.518.262-6.3,5.463,3.156,5.463,3.156Z" transform="translate(-31.612 -44.039)" fill="#ffc727"/>
        <path id="패스_242" data-name="패스 242" d="M128.181,180.94v0l.11,5.3.046,1.747-1.466-.963-4.415-2.935h0v-.007l-18.34-33.358,5.726-3.147,18.34,33.363Z" transform="translate(-32.124 -45.537)" fill="#ffc727"/>
        <path id="패스_243" data-name="패스 243" d="M138.449,203.5l.042,1.75-1.465-.967Z" transform="translate(-42.28 -62.791)" fill="#4e54ff"/>
        <rect id="사각형_144" data-name="사각형 144" width="7.627" height="1.513" transform="translate(71.41 105.276) rotate(-28.8)" fill="#263238"/>
        <rect id="사각형_145" data-name="사각형 145" width="7.627" height="1.513" transform="translate(72.216 106.742) rotate(-28.8)" fill="#263238"/>
        <path id="패스_244" data-name="패스 244" d="M105.5,155.766l2.156-1.187L113.1,167.3l-.822.392Z" transform="translate(-32.552 -47.696)" fill="#263238"/>
        <path id="패스_245" data-name="패스 245" d="M50.164,61.491C33.358,78.7,11.9,105.416,16.542,114.039S38.8,139.414,54.7,144.649c3.076,1.013,14.841-24.366,11.6-25.585-8.457-3.178-23.005-15.508-23.913-17.144-.438-.787,12.953-22.421,18.121-35.036,6.242-15.237-.289-15.69-10.342-5.392" transform="translate(-4.905 -16.812)" fill="#d3766a"/>
        <path id="패스_246" data-name="패스 246" d="M111.565,171.931c-2.042,2.333-7.371-3.19-7.371-3.19a5.723,5.723,0,0,1-.32,3.879c-1.082,2.095-4.839,1.317-4.839,1.317a7.057,7.057,0,0,1-.991,4.037c-1.236,1.9-5.141,1.659-5.141,1.659a6.185,6.185,0,0,1-3.107,3c-3.7,1.445-20.945-7.98-25.25-11.428l14.866-23.8s18.712,3.562,22,6.757c2.768,2.69,13.278,14.2,10.156,17.77" transform="translate(-19.916 -45.483)" fill="#d3766a"/>
        <path id="패스_247" data-name="패스 247" d="M118.1,173.873a51.832,51.832,0,0,0-8.39-9.47c-.067-.062-.167.044-.1.107,3.046,2.83,5.406,6.543,8.334,9.489a.1.1,0,0,0,.155-.126" transform="translate(-33.816 -50.721)" fill="#263238"/>
        <path id="패스_248" data-name="패스 248" d="M110.415,181.889a10.958,10.958,0,0,0-2.046-2.023c-.774-.667-1.558-1.316-2.352-1.956q-2.386-1.921-4.866-3.719c-.073-.051-.172.046-.1.106,1.583,1.279,3.147,2.582,4.674,3.925q1.148,1.009,2.278,2.036a13.1,13.1,0,0,0,2.219,1.833.145.145,0,0,0,.192-.2" transform="translate(-31.173 -53.744)" fill="#263238"/>
        <path id="패스_249" data-name="패스 249" d="M101.623,190.826a7.659,7.659,0,0,0-1.939-1.722q-1.105-.85-2.2-1.715c-1.46-1.154-2.92-2.306-4.34-3.508-.07-.06-.169.045-.1.106,1.436,1.228,2.856,2.478,4.3,3.693q1.067.9,2.142,1.781a7.188,7.188,0,0,0,2.082,1.442.051.051,0,0,0,.054-.076" transform="translate(-28.702 -56.732)" fill="#263238"/>
        <path id="패스_250" data-name="패스 250" d="M60.95,114.914,45.372,143.1s-29.834-22.706-30.293-31.674S33.741,75.478,48.994,60.992s16.033-5.9,11.2,7.358-16.661,31.884-16.727,32.8,17.486,13.76,17.486,13.76" transform="translate(-4.65 -16.494)" fill="#4e54ff"/>
        <path id="패스_251" data-name="패스 251" d="M17.328,115.069c-.124.048-.256.1-.38.159l.235.408c.111-.035.215-.076.318-.11a6.548,6.548,0,0,0,1.68-.886,6.627,6.627,0,0,0-1.853.429M36.44,92.313a6.432,6.432,0,0,0-.56,1.812,6.674,6.674,0,0,0,1.009-1.611,6.9,6.9,0,0,0,.56-1.812,6.684,6.684,0,0,0-1.01,1.611m15.371,15.461c-.117.208-.221.415-.325.629a6.9,6.9,0,0,0-.56,1.812,6.808,6.808,0,0,0,1.009-1.6c.083-.187.159-.38.228-.574-.118-.09-.235-.18-.353-.263m-18.178,24.1a8.416,8.416,0,0,0-.353.906v.007c.1.083.187.166.283.249a8.415,8.415,0,0,0,.512-.955,6.654,6.654,0,0,0,.567-1.812,6.516,6.516,0,0,0-1.01,1.6M46.8,73.4a6.908,6.908,0,0,0-.56,1.812,6.642,6.642,0,0,0,1.01-1.6,6.415,6.415,0,0,0,.56-1.811A6.73,6.73,0,0,0,46.8,73.4M27.631,114.232a6.467,6.467,0,0,0-.56,1.819,6.7,6.7,0,0,0,1.009-1.611,6.9,6.9,0,0,0,.56-1.812,6.8,6.8,0,0,0-1.01,1.6m24.643,11.651a6.392,6.392,0,0,0-.56,1.818,7.514,7.514,0,0,0,1.57-3.422,6.634,6.634,0,0,0-1.01,1.6M37.553,109.551a6.7,6.7,0,0,0-1.818-.56A6.683,6.683,0,0,0,37.345,110a6.9,6.9,0,0,0,1.812.56,6.787,6.787,0,0,0-1.6-1.009M23.281,123.27c-.007,0-.007-.007-.014-.007l.781.823h.007a4.766,4.766,0,0,0,.837.194,6.668,6.668,0,0,0-1.611-1.01M42.026,68.929H42.02c-.1.111-.193.215-.29.325a5.442,5.442,0,0,0,1.224.325,5.238,5.238,0,0,0-.927-.65m2.123,60.335a6.49,6.49,0,0,0-1.819-.56,7.5,7.5,0,0,0,3.423,1.569,6.809,6.809,0,0,0-1.6-1.01M26.7,92.555A6.426,6.426,0,0,0,24.893,92,6.517,6.517,0,0,0,26.5,93a6.893,6.893,0,0,0,1.812.56,6.532,6.532,0,0,0-1.6-1.01m31.447-21.7a6.806,6.806,0,0,0-.885-1.673,6.6,6.6,0,0,0,.422,1.846,6.754,6.754,0,0,0,.885,1.68,6.634,6.634,0,0,0-.422-1.853M35.969,81.25a6.862,6.862,0,0,0-.885-1.68,6.639,6.639,0,0,0,.422,1.853,6.76,6.76,0,0,0,.885,1.68,6.575,6.575,0,0,0-.422-1.853m7.965,19.83a6.75,6.75,0,0,0-.885-1.68,6.648,6.648,0,0,0,.429,1.853,6.328,6.328,0,0,0,.885,1.68,6.637,6.637,0,0,0-.429-1.853m1.134,41.445c-.076-.318-.18-.63-.284-.934a7,7,0,0,0-.885-1.68,6.63,6.63,0,0,0,.422,1.853c.035.09.069.173.111.263v.007c.242.187.449.346.636.491m.768-24.374a6.526,6.526,0,0,0-.885-1.68A7.424,7.424,0,0,0,46.258,120a6.583,6.583,0,0,0-.422-1.846M19.672,106.163a6.754,6.754,0,0,0-.885-1.68,6.642,6.642,0,0,0,.429,1.853,6.428,6.428,0,0,0,.885,1.68,6.627,6.627,0,0,0-.429-1.853M59.561,53.828c-.076.021-.152.048-.235.076a4.475,4.475,0,0,0,.3.443c-.014-.179-.034-.345-.062-.518m-.629,61.179a6.6,6.6,0,0,0-1.673.885,6.58,6.58,0,0,0,1.846-.429,6.3,6.3,0,0,0,1.68-.885,6.674,6.674,0,0,0-1.853.429M45.518,84.618a6.82,6.82,0,0,0-1.673.885,6.591,6.591,0,0,0,1.846-.422,6.526,6.526,0,0,0,1.68-.885,6.64,6.64,0,0,0-1.853.422m-15.2,17.576a6.533,6.533,0,0,0-1.68.885,6.544,6.544,0,0,0,1.846-.428,6.329,6.329,0,0,0,1.68-.885,6.582,6.582,0,0,0-1.846.428m3.893,18.842a6.788,6.788,0,0,0-1.673.885,6.613,6.613,0,0,0,1.846-.422,6.533,6.533,0,0,0,1.68-.886,6.621,6.621,0,0,0-1.853.422M53.242,61.42a6.507,6.507,0,0,0-1.68.885A7.511,7.511,0,0,0,55.088,61a6.57,6.57,0,0,0-1.846.422" transform="translate(-5.229 -16.609)" fill="#fff"/>
        <path id="패스_252" data-name="패스 252" d="M67.515,139.729c-3.571,6.077-6.9,12.3-10.209,18.516-.937,1.759-1.849,3.53-2.812,5.273-.033.061.057.116.092.056,1.787-3.035,3.654-6.024,5.4-9.084s3.433-6.16,5.045-9.3c.911-1.774,1.829-3.542,2.687-5.342.065-.137-.125-.259-.2-.123" transform="translate(-16.812 -43.096)" fill="#263238"/>
        <path id="패스_253" data-name="패스 253" d="M70.17,89.96c-.557.752-1.114,1.5-1.679,2.248-.236.311-.477.621-.717.931.548-1.058,1.094-2.119,1.613-3.19.715-1.474,1.452-2.942,2.09-4.451a.046.046,0,0,0-.08-.044c-1.549,2.411-2.91,4.954-4.271,7.473-1.378,2.548-2.706,5.128-4.016,7.712-.363.717-.711,1.443-1.056,2.17a20.06,20.06,0,0,0-.948,2.147c-.016.048.06.093.092.049a32.674,32.674,0,0,0,2.13-3.558c.707-1.247,1.375-2.518,2.055-3.782q.947-1.759,1.879-3.53a16.814,16.814,0,0,0,1.49-1.794,21.079,21.079,0,0,0,1.492-2.328c.024-.044-.042-.1-.073-.054" transform="translate(-18.854 -26.361)" fill="#263238"/>
      </g>
    </g>
    <g id="그룹_108" data-name="그룹 108">
      <g id="그룹_107" data-name="그룹 107" clip-path="url(#clip-path)">
        <path id="패스_254" data-name="패스 254" d="M161.963,94.627a3.747,3.747,0,1,1-2.981-4.38,3.749,3.749,0,0,1,2.981,4.38" transform="translate(-47.683 -27.825)" fill="#4e54ff"/>
        <rect id="사각형_147" data-name="사각형 147" width="18.832" height="2.861" transform="matrix(0.187, -0.982, 0.982, 0.187, 111.475, 66.225)" fill="#4e54ff"/>
        <path id="패스_255" data-name="패스 255" d="M180.662,90.161a3.746,3.746,0,1,1-2.981-4.38,3.746,3.746,0,0,1,2.981,4.38" transform="translate(-53.453 -26.448)" fill="#4e54ff"/>
        <rect id="사각형_148" data-name="사각형 148" width="18.832" height="2.861" transform="translate(124.406 63.137) rotate(-79.236)" fill="#4e54ff"/>
        <path id="패스_256" data-name="패스 256" d="M181.836,64.28l-16.207,4.988.47-2.473,16.207-4.988Z" transform="translate(-51.106 -19.071)" fill="#4e54ff"/>
        <path id="패스_257" data-name="패스 257" d="M180.554,71.022l-16.206,4.989.47-2.473,16.206-4.989Z" transform="translate(-50.711 -21.152)" fill="#4e54ff"/>
        <path id="패스_258" data-name="패스 258" d="M240.725,155.216a3.746,3.746,0,1,1-2.981-4.38,3.75,3.75,0,0,1,2.981,4.38" transform="translate(-71.985 -46.522)" fill="#4e54ff"/>
        <rect id="사각형_149" data-name="사각형 149" width="18.832" height="2.861" transform="translate(165.936 108.119) rotate(-79.236)" fill="#4e54ff"/>
        <rect id="사각형_150" data-name="사각형 150" width="5.444" height="2.861" transform="translate(178.89 92.02) rotate(-79.233)" fill="#4e54ff"/>
        <path id="패스_259" data-name="패스 259" d="M257.994,126.046l-13.6,4.175.471-2.473,13.6-4.175Z" transform="translate(-75.41 -38.129)" fill="#4e54ff"/>
        <path id="패스_260" data-name="패스 260" d="M256.712,132.791l-13.6,4.174.471-2.473,13.6-4.175Z" transform="translate(-75.014 -40.211)" fill="#4e54ff"/>
        <path id="패스_261" data-name="패스 261" d="M206.456,42.525a3.748,3.748,0,1,1-2.981-4.38,3.749,3.749,0,0,1,2.981,4.38" transform="translate(-61.411 -11.749)" fill="#4e54ff"/>
        <rect id="사각형_151" data-name="사각형 151" width="18.832" height="2.861" transform="matrix(0.187, -0.982, 0.982, 0.187, 142.239, 30.199)" fill="#4e54ff"/>
        <rect id="사각형_152" data-name="사각형 152" width="5.444" height="2.862" transform="translate(155.194 14.1) rotate(-79.236)" fill="#4e54ff"/>
        <path id="패스_262" data-name="패스 262" d="M223.721,13.354l-13.6,4.175.469-2.474,13.6-4.174Z" transform="translate(-64.836 -3.357)" fill="#4e54ff"/>
        <path id="패스_263" data-name="패스 263" d="M222.439,20.1l-13.6,4.175.469-2.473,13.6-4.175Z" transform="translate(-64.44 -5.438)" fill="#4e54ff"/>
      </g>
    </g>
  </g>
</svg>
