<svg xmlns="http://www.w3.org/2000/svg" width="46" height="49.16" viewBox="0 0 46 49.16">
  <g id="그룹_198" data-name="그룹 198" transform="translate(-242 -50.999)">
    <rect id="사각형_211" data-name="사각형 211" width="46" height="49.16" transform="translate(242 50.999)" fill="#fff"/>
    <g id="그룹_197" data-name="그룹 197" transform="translate(242 50.999)">
      <path id="패스_380" data-name="패스 380" d="M24.578,17.589a6.836,6.836,0,1,0,5.8,10.509,6.736,6.736,0,0,0,1.082-3.673c0-.19-.011-.377-.026-.563h.026v-13.2A15.486,15.486,0,0,1,38.11,16.98l.571-.329L46,12.45A24.607,24.607,0,0,0,0,24.425,24.318,24.318,0,0,0,9.113,43.407V24.742h0c0-.1,0-.213,0-.317A15.417,15.417,0,0,1,24.578,9.057a15.662,15.662,0,0,1,2.074.139v8.713a6.9,6.9,0,0,0-2.074-.321" fill="#4e54ff"/>
      <path id="패스_381" data-name="패스 381" d="M67.466,83.565a16.261,16.261,0,0,1-20.523,6.468v10.109a25.827,25.827,0,0,0,28.812-11.8l-7.4-4.269Z" transform="translate(-30.043 -51.844)" fill="#4e54ff"/>
    </g>
  </g>
</svg>
