<?xml version="1.0" encoding="UTF-8" standalone="no"?>
<!-- Created with Inkscape (http://www.inkscape.org/) -->

<svg
   version="1.1"
   id="svg2"
   xml:space="preserve"
   width="523.35199"
   height="508.48001"
   viewBox="170 165 180 180"
   sodipodi:docname="ChordPlay_Artboard 3.ai"
   xmlns:inkscape="http://www.inkscape.org/namespaces/inkscape"
   xmlns:sodipodi="http://sodipodi.sourceforge.net/DTD/sodipodi-0.dtd"
   xmlns="http://www.w3.org/2000/svg"
   xmlns:svg="http://www.w3.org/2000/svg"><defs
     id="defs6"><linearGradient
       x1="0"
       y1="0"
       x2="1"
       y2="0"
       gradientUnits="userSpaceOnUse"
       gradientTransform="matrix(262.68646,-235.60538,-235.60538,-262.68646,94.080887,285.95471)"
       spreadMethod="pad"
       id="linearGradient26"><stop
         style="stop-opacity:1;stop-color:#4e54ff"
         offset="0"
         id="stop22" /><stop
         style="stop-opacity:1;stop-color:#5c97f5"
         offset="1"
         id="stop24" /></linearGradient><linearGradient
       x1="0"
       y1="0"
       x2="1"
       y2="0"
       gradientUnits="userSpaceOnUse"
       gradientTransform="matrix(262.68646,-235.60538,-235.60538,-262.68646,79.429054,269.61877)"
       spreadMethod="pad"
       id="linearGradient46"><stop
         style="stop-opacity:1;stop-color:#4e54ff"
         offset="0"
         id="stop42" /><stop
         style="stop-opacity:1;stop-color:#5c97f5"
         offset="1"
         id="stop44" /></linearGradient></defs><sodipodi:namedview
     id="namedview4"
     pagecolor="#ffffff"
     bordercolor="#666666"
     borderopacity="1.0"
     inkscape:pageshadow="2"
     inkscape:pageopacity="0.0"
     inkscape:pagecheckerboard="0" /><g
     id="g8"
     inkscape:groupmode="layer"
     inkscape:label="ChordPlay_Artboard 3"
     transform="matrix(1.3333333,0,0,-1.3333333,0,508.48)"><g
       id="g10"><g
         id="g12"><g
           id="g18"><g
             id="g20"><path
               d="m 137.211,190.68 c 0,-19.802 9.125,-37.471 23.395,-49.038 v 0 48.217 h 0.01 c -0.01,0.271 -0.01,0.55 -0.01,0.821 v 0 c 0,21.927 17.775,39.702 39.702,39.702 v 0 c 1.805,0 3.581,-0.127 5.323,-0.36 v 0 -22.51 c -1.682,0.532 -3.468,0.828 -5.323,0.828 v 0 c -9.754,0 -17.66,-7.906 -17.66,-17.66 v 0 c 0,-9.753 7.906,-17.659 17.66,-17.659 v 0 c 6.259,0 11.758,3.261 14.883,8.17 v 0 c 1.762,2.744 2.776,5.996 2.776,9.489 v 0 c 0,0.491 -0.028,0.974 -0.066,1.454 v 0 h 0.066 v 34.096 c 7.211,-3.589 13.185,-9.295 17.08,-16.317 v 0 l 1.467,0.85 18.788,10.852 c -10.813,19.194 -31.388,32.161 -54.994,32.161 v 0 c -34.846,0 -63.097,-28.25 -63.097,-63.096"
               style="fill:url(#linearGradient26);stroke:none"
               id="path28" /></g></g></g></g><g
       id="g30"><g
         id="g32"><g
           id="g38"><g
             id="g40"><path
               d="m 200.308,150.979 c -5.755,0 -11.22,1.225 -16.154,3.418 v 0 -24.718 c 5.157,-1.37 10.573,-2.095 16.154,-2.095 v 0 c 23.095,0 43.302,12.416 54.289,30.935 v 0 l -18.083,10.437 -2.182,1.256 c -6.951,-11.528 -19.59,-19.233 -34.024,-19.233"
               style="fill:url(#linearGradient46);stroke:none"
               id="path48" /></g></g></g></g></g></svg>
