<svg id="그룹_99" data-name="그룹 99" xmlns="http://www.w3.org/2000/svg" xmlns:xlink="http://www.w3.org/1999/xlink" width="18" height="21.945" viewBox="0 0 18 21.945">
  <defs>
    <clipPath id="clip-path">
      <rect id="사각형_126" data-name="사각형 126" width="18" height="21.945" fill="#fff"/>
    </clipPath>
  </defs>
  <g id="그룹_98" data-name="그룹 98" clip-path="url(#clip-path)">
    <path id="패스_156" data-name="패스 156" d="M5.968,134.847C2.7,134.829,0,128.161,0,124.766c0-5.546,4.161-6.761,5.764-6.761a6.633,6.633,0,0,1,2.175.535,4.861,4.861,0,0,0,1.242.356,3.865,3.865,0,0,0,.891-.289,7.14,7.14,0,0,1,2.685-.649h.006a5.5,5.5,0,0,1,4.606,2.326l.336.5-.483.365a4.068,4.068,0,0,0-1.951,3.355,3.786,3.786,0,0,0,2.113,3.5c.3.182.616.37.616.78,0,.268-2.14,6.025-5.247,6.025a4.22,4.22,0,0,1-1.772-.43A3.593,3.593,0,0,0,9.4,134a4.056,4.056,0,0,0-1.249.338,6.117,6.117,0,0,1-2.166.505Z" transform="translate(0 -112.902)" fill="#fff"/>
    <path id="패스_157" data-name="패스 157" d="M213.255,0c.081,2.918-2.006,4.942-4.09,4.815A4.65,4.65,0,0,1,213.255,0" transform="translate(-200.169)" fill="#fff"/>
  </g>
</svg>
