<svg xmlns="http://www.w3.org/2000/svg" width="16" height="16.003" viewBox="0 0 16 16.003">
  <g id="mute" transform="translate(-0.045 0)">
    <path id="패스_40" data-name="패스 40" d="M190.33.575a.572.572,0,0,0-.32-.514.557.557,0,0,0-.606.069l-5.063,4.034,5.989,5.989Z" transform="translate(-177.714)" fill="#fff"/>
    <path id="패스_41" data-name="패스 41" d="M15.878,15.092,1.02.234a.571.571,0,0,0-.808.808l3.6,3.6H3.473A1.161,1.161,0,0,0,2.33,5.782v4.572A1.146,1.146,0,0,0,3.473,11.5H6.124l5.566,4.446a.583.583,0,0,0,.354.126.669.669,0,0,0,.251-.057.572.572,0,0,0,.32-.514V13.447L15.069,15.9a.572.572,0,1,0,.809-.808Z" transform="translate(0 -0.064)" fill="#fff"/>
  </g>
</svg>
