<svg id="vinyl_1_" data-name="vinyl (1)" xmlns="http://www.w3.org/2000/svg" width="23" height="23" viewBox="0 0 23 23">
  <g id="그룹_73" data-name="그룹 73">
    <g id="그룹_72" data-name="그룹 72">
      <circle id="타원_18" data-name="타원 18" cx="0.958" cy="0.958" r="0.958" transform="translate(10.542 10.542)" fill="#9d9faf"/>
      <path id="패스_36" data-name="패스 36" d="M22,6.823a.479.479,0,0,0-.917.2v6.4a.485.485,0,0,1-.14.339l-1.718,1.718a.479.479,0,0,0,0,.678l.281.281a.479.479,0,0,1,0,.678L16.63,19.985a.491.491,0,0,1-.678,0l-.281-.281a.479.479,0,0,0-.678,0l-.281.281a.491.491,0,0,1-.678,0,.479.479,0,0,1,0-.678l.281-.281a.479.479,0,0,0,0-.678l-.281-.281a.479.479,0,0,1,0-.678l2.875-2.875a.491.491,0,0,1,.678,0l.281.281a.479.479,0,0,0,.678,0l1.438-1.437a.479.479,0,0,0,.14-.339V.479a.479.479,0,1,0-.958,0V2.948A11.487,11.487,0,1,0,23,11.5,11.408,11.408,0,0,0,22,6.823ZM5.73,6.229a.48.48,0,0,1-.34-.817A8.567,8.567,0,0,1,11.5,2.875a.479.479,0,0,1,0,.958A7.613,7.613,0,0,0,6.07,6.088.478.478,0,0,1,5.73,6.229ZM6.708,11.5A4.792,4.792,0,1,1,11.5,16.292,4.8,4.8,0,0,1,6.708,11.5Z" fill="#9d9faf"/>
    </g>
  </g>
</svg>
