<svg xmlns="http://www.w3.org/2000/svg" width="18" height="16.501" viewBox="0 0 18 16.501">
  <g id="repeat_1_" data-name="repeat (1)" transform="translate(0 -21.322)">
    <g id="그룹_150" data-name="그룹 150" transform="translate(0 21.322)">
      <g id="그룹_149" data-name="그룹 149">
        <path id="패스_340" data-name="패스 340" d="M156.081,23.572h-4.2l.97-.97a.75.75,0,0,0-1.061-1.061l-2.25,2.25c-.017.017-.034.036-.05.055l-.02.027c-.008.011-.016.021-.024.032s-.013.022-.02.033l-.018.03c-.006.011-.011.023-.016.034s-.011.021-.015.033-.008.022-.012.034-.009.024-.013.036-.006.023-.009.034-.007.025-.009.037,0,.026-.006.039,0,.022,0,.033,0,.049,0,.073h0q0,.037,0,.073c0,.011,0,.022,0,.033s0,.026.006.039.006.025.009.037.005.023.009.034.008.024.013.036.008.022.012.033.01.022.015.033.01.023.016.034l.018.03c.007.011.013.022.02.033s.016.022.024.032l.02.027c.016.019.032.038.05.055l2.25,2.25a.75.75,0,0,0,1.061-1.061l-.97-.97h4.189a4.5,4.5,0,0,1,4.5,4.5,4.07,4.07,0,0,1-1.2,2.884.75.75,0,1,0,1.061,1.06,5.569,5.569,0,0,0,1.639-3.944A6,6,0,0,0,156.081,23.572Z" transform="translate(-144.073 -21.322)" fill="#fff"/>
        <path id="패스_341" data-name="패스 341" d="M12.6,147.4l.024-.032c.007-.011.013-.022.02-.033l.018-.03c.006-.011.011-.023.016-.034s.01-.021.015-.032.008-.022.012-.034.009-.024.012-.036.006-.023.009-.034.007-.025.009-.037,0-.026.006-.04,0-.022,0-.033a.755.755,0,0,0,0-.148c0-.011,0-.022,0-.033s0-.027-.006-.04-.006-.025-.009-.037-.005-.023-.009-.034-.008-.024-.012-.036-.008-.023-.012-.034-.01-.022-.015-.032-.01-.023-.016-.034l-.018-.03c-.007-.011-.013-.022-.02-.033l-.024-.032-.02-.027c-.015-.019-.032-.037-.049-.054h0l-2.25-2.25a.75.75,0,1,0-1.061,1.061l.97.97H6a4.5,4.5,0,0,1-4.5-4.5,4.07,4.07,0,0,1,1.2-2.884.75.75,0,0,0-1.061-1.06A5.569,5.569,0,0,0,0,141.7a6,6,0,0,0,5.992,6h4.2l-.97.97a.75.75,0,1,0,1.061,1.061l2.25-2.25h0c.017-.017.034-.036.049-.055Z" transform="translate(0 -133.454)" fill="#fff"/>
      </g>
    </g>
  </g>
</svg>
