<svg width="1199" height="841" viewBox="0 0 1199 841" fill="none" xmlns="http://www.w3.org/2000/svg">
<path d="M359 342.652C359 417.237 393.369 483.787 447.118 527.355V345.745H447.155C447.118 344.724 447.118 343.673 447.118 342.652C447.118 260.064 514.068 193.114 596.656 193.114C603.455 193.114 610.144 193.592 616.705 194.47V279.254C610.37 277.25 603.643 276.136 596.656 276.136C559.917 276.136 530.139 305.914 530.139 342.652C530.139 379.387 559.917 409.165 596.656 409.165C620.231 409.165 640.943 396.883 652.713 378.393C659.35 368.057 663.169 355.809 663.169 342.652C663.169 340.803 663.064 338.984 662.92 337.176H663.169V208.752C690.329 222.271 712.83 243.762 727.501 270.211L733.027 267.009L803.792 226.135C763.065 153.84 685.568 105 596.656 105C465.408 105 359 211.404 359 342.652" fill="url(#paint0_linear_24_34)"/>
<path d="M596.656 492.187C574.98 492.187 554.396 487.573 535.812 479.313V572.414C555.236 577.574 575.635 580.304 596.656 580.304C683.644 580.304 759.754 533.539 801.136 463.787L733.027 424.476L724.808 419.745C698.627 463.166 651.022 492.187 596.656 492.187" fill="url(#paint1_linear_24_34)"/>
<path d="M336.227 683.5H316.318C315.955 680.924 315.212 678.636 314.091 676.636C312.97 674.606 311.53 672.879 309.773 671.455C308.015 670.03 305.985 668.939 303.682 668.182C301.409 667.424 298.939 667.045 296.273 667.045C291.455 667.045 287.258 668.242 283.682 670.636C280.106 673 277.333 676.455 275.364 681C273.394 685.515 272.409 691 272.409 697.455C272.409 704.091 273.394 709.667 275.364 714.182C277.364 718.697 280.152 722.106 283.727 724.409C287.303 726.712 291.439 727.864 296.136 727.864C298.773 727.864 301.212 727.515 303.455 726.818C305.727 726.121 307.742 725.106 309.5 723.773C311.258 722.409 312.712 720.758 313.864 718.818C315.045 716.879 315.864 714.667 316.318 712.182L336.227 712.273C335.712 716.545 334.424 720.667 332.364 724.636C330.333 728.576 327.591 732.106 324.136 735.227C320.712 738.318 316.621 740.773 311.864 742.591C307.136 744.379 301.788 745.273 295.818 745.273C287.515 745.273 280.091 743.394 273.545 739.636C267.03 735.879 261.879 730.439 258.091 723.318C254.333 716.197 252.455 707.576 252.455 697.455C252.455 687.303 254.364 678.667 258.182 671.545C262 664.424 267.182 659 273.727 655.273C280.273 651.515 287.636 649.636 295.818 649.636C301.212 649.636 306.212 650.394 310.818 651.909C315.455 653.424 319.561 655.636 323.136 658.545C326.712 661.424 329.621 664.955 331.864 669.136C334.136 673.318 335.591 678.106 336.227 683.5ZM369.341 703.636V744H349.977V650.909H368.795V686.5H369.614C371.189 682.379 373.735 679.152 377.25 676.818C380.765 674.455 385.174 673.273 390.477 673.273C395.326 673.273 399.553 674.333 403.159 676.455C406.795 678.545 409.614 681.561 411.614 685.5C413.644 689.409 414.644 694.091 414.614 699.545V744H395.25V703C395.28 698.697 394.189 695.348 391.977 692.955C389.795 690.561 386.735 689.364 382.795 689.364C380.159 689.364 377.826 689.924 375.795 691.045C373.795 692.167 372.22 693.803 371.068 695.955C369.947 698.076 369.371 700.636 369.341 703.636ZM461.398 745.364C454.337 745.364 448.231 743.864 443.08 740.864C437.958 737.833 434.004 733.621 431.216 728.227C428.428 722.803 427.034 716.515 427.034 709.364C427.034 702.152 428.428 695.848 431.216 690.455C434.004 685.03 437.958 680.818 443.08 677.818C448.231 674.788 454.337 673.273 461.398 673.273C468.458 673.273 474.549 674.788 479.67 677.818C484.822 680.818 488.792 685.03 491.58 690.455C494.367 695.848 495.761 702.152 495.761 709.364C495.761 716.515 494.367 722.803 491.58 728.227C488.792 733.621 484.822 737.833 479.67 740.864C474.549 743.864 468.458 745.364 461.398 745.364ZM461.489 730.364C464.701 730.364 467.383 729.455 469.534 727.636C471.686 725.788 473.307 723.273 474.398 720.091C475.519 716.909 476.08 713.288 476.08 709.227C476.08 705.167 475.519 701.545 474.398 698.364C473.307 695.182 471.686 692.667 469.534 690.818C467.383 688.97 464.701 688.045 461.489 688.045C458.246 688.045 455.519 688.97 453.307 690.818C451.125 692.667 449.473 695.182 448.352 698.364C447.261 701.545 446.716 705.167 446.716 709.227C446.716 713.288 447.261 716.909 448.352 720.091C449.473 723.273 451.125 725.788 453.307 727.636C455.519 729.455 458.246 730.364 461.489 730.364ZM508.352 744V674.182H527.125V686.364H527.852C529.125 682.03 531.261 678.758 534.261 676.545C537.261 674.303 540.716 673.182 544.625 673.182C545.595 673.182 546.64 673.242 547.761 673.364C548.883 673.485 549.867 673.652 550.716 673.864V691.045C549.807 690.773 548.549 690.53 546.943 690.318C545.337 690.106 543.867 690 542.534 690C539.686 690 537.14 690.621 534.898 691.864C532.686 693.076 530.928 694.773 529.625 696.955C528.352 699.136 527.716 701.652 527.716 704.5V744H508.352ZM583.205 745.136C577.902 745.136 573.098 743.773 568.795 741.045C564.523 738.288 561.129 734.242 558.614 728.909C556.129 723.545 554.886 716.97 554.886 709.182C554.886 701.182 556.174 694.53 558.75 689.227C561.326 683.894 564.75 679.909 569.023 677.273C573.326 674.606 578.038 673.273 583.159 673.273C587.068 673.273 590.326 673.939 592.932 675.273C595.568 676.576 597.689 678.212 599.295 680.182C600.932 682.121 602.174 684.03 603.023 685.909H603.614V650.909H622.932V744H603.841V732.818H603.023C602.114 734.758 600.826 736.682 599.159 738.591C597.523 740.47 595.386 742.03 592.75 743.273C590.144 744.515 586.962 745.136 583.205 745.136ZM589.341 729.727C592.462 729.727 595.098 728.879 597.25 727.182C599.432 725.455 601.098 723.045 602.25 719.955C603.432 716.864 604.023 713.242 604.023 709.091C604.023 704.939 603.447 701.333 602.295 698.273C601.144 695.212 599.477 692.848 597.295 691.182C595.114 689.515 592.462 688.682 589.341 688.682C586.159 688.682 583.477 689.545 581.295 691.273C579.114 693 577.462 695.394 576.341 698.455C575.22 701.515 574.659 705.061 574.659 709.091C574.659 713.152 575.22 716.742 576.341 719.864C577.492 722.955 579.144 725.379 581.295 727.136C583.477 728.864 586.159 729.727 589.341 729.727ZM668.841 744V650.909H705.568C712.629 650.909 718.644 652.258 723.614 654.955C728.583 657.621 732.371 661.333 734.977 666.091C737.614 670.818 738.932 676.273 738.932 682.455C738.932 688.636 737.598 694.091 734.932 698.818C732.265 703.545 728.402 707.227 723.341 709.864C718.311 712.5 712.22 713.818 705.068 713.818H681.659V698.045H701.886C705.674 698.045 708.795 697.394 711.25 696.091C713.735 694.758 715.583 692.924 716.795 690.591C718.038 688.227 718.659 685.515 718.659 682.455C718.659 679.364 718.038 676.667 716.795 674.364C715.583 672.03 713.735 670.227 711.25 668.955C708.765 667.652 705.614 667 701.795 667H688.523V744H668.841ZM770.716 650.909V744H751.352V650.909H770.716ZM806.136 745.318C801.682 745.318 797.712 744.545 794.227 743C790.742 741.424 787.985 739.106 785.955 736.045C783.955 732.955 782.955 729.106 782.955 724.5C782.955 720.621 783.667 717.364 785.091 714.727C786.515 712.091 788.455 709.97 790.909 708.364C793.364 706.758 796.152 705.545 799.273 704.727C802.424 703.909 805.727 703.333 809.182 703C813.242 702.576 816.515 702.182 819 701.818C821.485 701.424 823.288 700.848 824.409 700.091C825.53 699.333 826.091 698.212 826.091 696.727V696.455C826.091 693.576 825.182 691.348 823.364 689.773C821.576 688.197 819.03 687.409 815.727 687.409C812.242 687.409 809.47 688.182 807.409 689.727C805.348 691.242 803.985 693.152 803.318 695.455L785.409 694C786.318 689.758 788.106 686.091 790.773 683C793.439 679.879 796.879 677.485 801.091 675.818C805.333 674.121 810.242 673.273 815.818 673.273C819.697 673.273 823.409 673.727 826.955 674.636C830.53 675.545 833.697 676.955 836.455 678.864C839.242 680.773 841.439 683.227 843.045 686.227C844.652 689.197 845.455 692.758 845.455 696.909V744H827.091V734.318H826.545C825.424 736.5 823.924 738.424 822.045 740.091C820.167 741.727 817.909 743.015 815.273 743.955C812.636 744.864 809.591 745.318 806.136 745.318ZM811.682 731.955C814.53 731.955 817.045 731.394 819.227 730.273C821.409 729.121 823.121 727.576 824.364 725.636C825.606 723.697 826.227 721.5 826.227 719.045V711.636C825.621 712.03 824.788 712.394 823.727 712.727C822.697 713.03 821.53 713.318 820.227 713.591C818.924 713.833 817.621 714.061 816.318 714.273C815.015 714.455 813.833 714.621 812.773 714.773C810.5 715.106 808.515 715.636 806.818 716.364C805.121 717.091 803.803 718.076 802.864 719.318C801.924 720.53 801.455 722.045 801.455 723.864C801.455 726.5 802.409 728.515 804.318 729.909C806.258 731.273 808.712 731.955 811.682 731.955ZM869.932 770.182C867.477 770.182 865.174 769.985 863.023 769.591C860.902 769.227 859.144 768.758 857.75 768.182L862.114 753.727C864.386 754.424 866.432 754.803 868.25 754.864C870.098 754.924 871.689 754.5 873.023 753.591C874.386 752.682 875.492 751.136 876.341 748.955L877.477 746L852.432 674.182H872.795L887.25 725.455H887.977L902.568 674.182H923.068L895.932 751.545C894.629 755.303 892.856 758.576 890.614 761.364C888.402 764.182 885.598 766.348 882.205 767.864C878.811 769.409 874.72 770.182 869.932 770.182Z" fill="white"/>
<defs>
<linearGradient id="paint0_linear_24_34" x1="196.55" y1="-16.2017" x2="1185.96" y2="871.21" gradientUnits="userSpaceOnUse">
<stop stop-color="white"/>
<stop offset="1" stop-color="#E9F1FF"/>
</linearGradient>
<linearGradient id="paint1_linear_24_34" x1="141.363" y1="45.3278" x2="1130.78" y2="932.74" gradientUnits="userSpaceOnUse">
<stop stop-color="white"/>
<stop offset="0.9999" stop-color="#DAE8FF"/>
<stop offset="1" stop-color="#5C97F5"/>
</linearGradient>
</defs>
</svg>
